<?xml version="1.0" encoding="UTF-8" standalone="no"?>
<!DOCTYPE svg PUBLIC "-//W3C//DTD SVG 1.1//EN"
 "http://www.w3.org/Graphics/SVG/1.1/DTD/svg11.dtd">
<!-- Generated by graphviz version 8.0.1 (20230327.1645)
 -->
<!-- Title: box2d Pages: 1 -->
<svg width="305pt" height="188pt"
 viewBox="0.00 0.00 305.23 188.00" xmlns="http://www.w3.org/2000/svg" xmlns:xlink="http://www.w3.org/1999/xlink">
<g id="graph0" class="graph" transform="scale(1 1) rotate(0) translate(4 184)">
<title>box2d</title>
<polygon fill="white" stroke="none" points="-4,4 -4,-184 301.23,-184 301.23,4 -4,4"/>
<!-- node1 -->
<g id="node1" class="node">
<title>node1</title>
<polygon fill="none" stroke="black" points="206.63,-10.54 206.63,-25.46 188.59,-36 163.08,-36 145.03,-25.46 145.03,-10.54 163.08,0 188.59,0 206.63,-10.54"/>
<text text-anchor="middle" x="175.83" y="-14.9" font-family="Times New Roman,serif" font-size="12.00">box2d</text>
</g>
<!-- node3 -->
<g id="node2" class="node">
<title>node3</title>
<polygon fill="none" stroke="black" points="125.61,-82.54 125.61,-97.46 92.35,-108 45.32,-108 12.06,-97.46 12.06,-82.54 45.32,-72 92.35,-72 125.61,-82.54"/>
<text text-anchor="middle" x="68.83" y="-86.9" font-family="Times New Roman,serif" font-size="12.00">ge_cpp_engine</text>
</g>
<!-- node3&#45;&gt;node1 -->
<g id="edge1" class="edge">
<title>node3&#45;&gt;node1</title>
<path fill="none" stroke="black" d="M94.46,-72.23C110.17,-61.95 130.34,-48.77 146.66,-38.09"/>
<polygon fill="black" stroke="black" points="148.31,-40.53 154.76,-32.13 144.48,-34.68 148.31,-40.53"/>
</g>
<!-- node2 -->
<g id="node3" class="node">
<title>node2</title>
<polygon fill="none" stroke="black" points="75.19,-144.05 79.4,-144.15 83.56,-144.3 87.66,-144.49 91.69,-144.74 95.62,-145.03 99.44,-145.36 103.14,-145.75 106.71,-146.18 110.12,-146.65 113.37,-147.16 116.44,-147.71 119.33,-148.31 122.02,-148.94 124.52,-149.61 126.8,-150.31 128.87,-151.04 130.72,-151.8 132.35,-152.59 133.76,-153.41 134.94,-154.25 135.89,-155.11 136.62,-155.99 137.13,-156.89 137.42,-157.8 137.5,-158.72 137.37,-159.65 137.04,-160.59 136.51,-161.53 135.8,-162.47 134.9,-163.41 133.83,-164.35 132.6,-165.28 131.21,-166.2 129.68,-167.11 128.01,-168.01 126.21,-168.89 124.3,-169.75 122.28,-170.59 120.16,-171.41 117.94,-172.2 115.65,-172.96 113.28,-173.69 110.85,-174.39 108.36,-175.06 105.81,-175.69 103.22,-176.29 100.59,-176.84 97.92,-177.35 95.23,-177.82 92.51,-178.25 89.77,-178.64 87.01,-178.97 84.23,-179.26 81.45,-179.51 78.65,-179.7 75.85,-179.85 73.05,-179.95 70.24,-180 67.43,-180 64.62,-179.95 61.82,-179.85 59.01,-179.7 56.22,-179.51 53.43,-179.26 50.66,-178.97 47.9,-178.64 45.16,-178.25 42.44,-177.82 39.75,-177.35 37.08,-176.84 34.45,-176.29 31.86,-175.69 29.31,-175.06 26.82,-174.39 24.39,-173.69 22.02,-172.96 19.72,-172.2 17.51,-171.41 15.39,-170.59 13.37,-169.75 11.46,-168.89 9.66,-168.01 7.99,-167.11 6.46,-166.2 5.07,-165.28 3.84,-164.35 2.77,-163.41 1.87,-162.47 1.16,-161.53 0.63,-160.59 0.3,-159.65 0.17,-158.72 0.24,-157.8 0.54,-156.89 1.05,-155.99 1.78,-155.11 2.73,-154.25 3.91,-153.41 5.32,-152.59 6.95,-151.8 8.8,-151.04 10.87,-150.31 13.15,-149.61 15.64,-148.94 18.34,-148.31 21.23,-147.71 24.3,-147.16 27.55,-146.65 30.96,-146.18 34.52,-145.75 38.22,-145.36 42.05,-145.03 45.98,-144.74 50.01,-144.49 54.11,-144.3 58.27,-144.15 62.48,-144.05 66.71,-144 70.95,-144 75.19,-144.05"/>
<text text-anchor="middle" x="68.83" y="-158.9" font-family="Times New Roman,serif" font-size="12.00">ge_cpp_application</text>
</g>
<!-- node2&#45;&gt;node3 -->
<g id="edge2" class="edge">
<title>node2&#45;&gt;node3</title>
<path fill="none" stroke="black" stroke-dasharray="1,5" d="M68.83,-143.7C68.83,-136.24 68.83,-127.32 68.83,-118.97"/>
<polygon fill="black" stroke="black" points="72.33,-119.1 68.83,-109.1 65.33,-119.1 72.33,-119.1"/>
</g>
<!-- node14 -->
<g id="node4" class="node">
<title>node14</title>
<polygon fill="none" stroke="black" points="178.85,-72.05 180.84,-72.15 182.82,-72.3 184.76,-72.49 186.67,-72.74 188.53,-73.03 190.35,-73.36 192.1,-73.75 193.79,-74.18 195.41,-74.65 196.95,-75.16 198.41,-75.71 199.78,-76.31 201.05,-76.94 202.24,-77.61 203.32,-78.31 204.3,-79.04 205.18,-79.8 205.95,-80.59 206.62,-81.41 207.17,-82.25 207.63,-83.11 207.97,-83.99 208.22,-84.89 208.35,-85.8 208.39,-86.72 208.33,-87.65 208.17,-88.59 207.92,-89.53 207.58,-90.47 207.16,-91.41 206.65,-92.35 206.07,-93.28 205.41,-94.2 204.68,-95.11 203.89,-96.01 203.04,-96.89 202.13,-97.75 201.17,-98.59 200.17,-99.41 199.12,-100.2 198.03,-100.96 196.91,-101.69 195.75,-102.39 194.57,-103.06 193.37,-103.69 192.14,-104.29 190.89,-104.84 189.63,-105.35 188.35,-105.82 187.06,-106.25 185.76,-106.64 184.45,-106.97 183.14,-107.26 181.81,-107.51 180.49,-107.7 179.16,-107.85 177.83,-107.95 176.5,-108 175.17,-108 173.84,-107.95 172.51,-107.85 171.18,-107.7 169.85,-107.51 168.53,-107.26 167.22,-106.97 165.91,-106.64 164.61,-106.25 163.32,-105.82 162.04,-105.35 160.78,-104.84 159.53,-104.29 158.3,-103.69 157.1,-103.06 155.91,-102.39 154.76,-101.69 153.64,-100.96 152.55,-100.2 151.5,-99.41 150.5,-98.59 149.54,-97.75 148.63,-96.89 147.78,-96.01 146.99,-95.11 146.26,-94.2 145.6,-93.28 145.02,-92.35 144.51,-91.41 144.09,-90.47 143.75,-89.53 143.5,-88.59 143.34,-87.65 143.28,-86.72 143.31,-85.8 143.45,-84.89 143.69,-83.99 144.04,-83.11 144.49,-82.25 145.05,-81.41 145.72,-80.59 146.49,-79.8 147.37,-79.04 148.35,-78.31 149.43,-77.61 150.61,-76.94 151.89,-76.31 153.26,-75.71 154.72,-75.16 156.26,-74.65 157.88,-74.18 159.57,-73.75 161.32,-73.36 163.13,-73.03 165,-72.74 166.91,-72.49 168.85,-72.3 170.83,-72.15 172.82,-72.05 174.83,-72 176.84,-72 178.85,-72.05"/>
<text text-anchor="middle" x="175.83" y="-86.9" font-family="Times New Roman,serif" font-size="12.00">testbed</text>
</g>
<!-- node14&#45;&gt;node1 -->
<g id="edge3" class="edge">
<title>node14&#45;&gt;node1</title>
<path fill="none" stroke="black" stroke-dasharray="1,5" d="M175.83,-71.7C175.83,-64.24 175.83,-55.32 175.83,-46.97"/>
<polygon fill="black" stroke="black" points="179.33,-47.1 175.83,-37.1 172.33,-47.1 179.33,-47.1"/>
</g>
<!-- node15 -->
<g id="node5" class="node">
<title>node15</title>
<polygon fill="none" stroke="black" points="265.1,-72.05 267.26,-72.15 269.4,-72.3 271.51,-72.49 273.58,-72.74 275.6,-73.03 277.57,-73.36 279.47,-73.75 281.3,-74.18 283.06,-74.65 284.73,-75.16 286.31,-75.71 287.79,-76.31 289.18,-76.94 290.46,-77.61 291.63,-78.31 292.7,-79.04 293.65,-79.8 294.49,-80.59 295.21,-81.41 295.82,-82.25 296.31,-83.11 296.68,-83.99 296.94,-84.89 297.09,-85.8 297.13,-86.72 297.07,-87.65 296.9,-88.59 296.63,-89.53 296.26,-90.47 295.8,-91.41 295.25,-92.35 294.61,-93.28 293.9,-94.2 293.11,-95.11 292.25,-96.01 291.33,-96.89 290.35,-97.75 289.31,-98.59 288.22,-99.41 287.08,-100.2 285.9,-100.96 284.68,-101.69 283.43,-102.39 282.15,-103.06 280.84,-103.69 279.51,-104.29 278.16,-104.84 276.79,-105.35 275.4,-105.82 274,-106.25 272.59,-106.64 271.18,-106.97 269.75,-107.26 268.32,-107.51 266.88,-107.7 265.44,-107.85 264,-107.95 262.56,-108 261.11,-108 259.67,-107.95 258.23,-107.85 256.79,-107.7 255.35,-107.51 253.92,-107.26 252.49,-106.97 251.07,-106.64 249.66,-106.25 248.27,-105.82 246.88,-105.35 245.51,-104.84 244.16,-104.29 242.83,-103.69 241.52,-103.06 240.24,-102.39 238.98,-101.69 237.77,-100.96 236.59,-100.2 235.45,-99.41 234.36,-98.59 233.32,-97.75 232.34,-96.89 231.41,-96.01 230.56,-95.11 229.77,-94.2 229.05,-93.28 228.42,-92.35 227.87,-91.41 227.41,-90.47 227.04,-89.53 226.77,-88.59 226.6,-87.65 226.53,-86.72 226.57,-85.8 226.72,-84.89 226.99,-83.99 227.36,-83.11 227.85,-82.25 228.46,-81.41 229.18,-80.59 230.02,-79.8 230.97,-79.04 232.03,-78.31 233.21,-77.61 234.49,-76.94 235.88,-76.31 237.36,-75.71 238.94,-75.16 240.61,-74.65 242.36,-74.18 244.2,-73.75 246.1,-73.36 248.06,-73.03 250.09,-72.74 252.15,-72.49 254.26,-72.3 256.4,-72.15 258.57,-72.05 260.74,-72 262.92,-72 265.1,-72.05"/>
<text text-anchor="middle" x="261.83" y="-86.9" font-family="Times New Roman,serif" font-size="12.00">unit_test</text>
</g>
<!-- node15&#45;&gt;node1 -->
<g id="edge4" class="edge">
<title>node15&#45;&gt;node1</title>
<path fill="none" stroke="black" stroke-dasharray="1,5" d="M243.17,-73.81C231.1,-63.98 215.2,-51.04 201.89,-40.21"/>
<polygon fill="black" stroke="black" points="204.54,-37.04 194.58,-33.44 200.12,-42.47 204.54,-37.04"/>
</g>
</g>
</svg>
