<?xml version="1.0" encoding="UTF-8" standalone="no"?>
<!DOCTYPE svg PUBLIC "-//W3C//DTD SVG 1.1//EN"
 "http://www.w3.org/Graphics/SVG/1.1/DTD/svg11.dtd">
<!-- Generated by graphviz version 8.0.1 (20230327.1645)
 -->
<!-- Title: ge_cpp_dev_environment Pages: 1 -->
<svg width="1700pt" height="355pt"
 viewBox="0.00 0.00 1700.31 355.43" xmlns="http://www.w3.org/2000/svg" xmlns:xlink="http://www.w3.org/1999/xlink">
<g id="graph0" class="graph" transform="scale(1 1) rotate(0) translate(4 351.43)">
<title>ge_cpp_dev_environment</title>
<polygon fill="white" stroke="none" points="-4,4 -4,-351.43 1696.31,-351.43 1696.31,4 -4,4"/>
<g id="clust1" class="cluster">
<title>clusterLegend</title>
<polygon fill="none" stroke="black" points="8,-76.72 8,-339.43 522,-339.43 522,-76.72 8,-76.72"/>
<text text-anchor="middle" x="265" y="-324.23" font-family="Times New Roman,serif" font-size="14.00">Legend</text>
</g>
<!-- legendNode0 -->
<g id="node1" class="node">
<title>legendNode0</title>
<polygon fill="none" stroke="black" points="269.98,-272.48 272.62,-272.58 275.23,-272.73 277.8,-272.93 280.32,-273.17 282.79,-273.46 285.18,-273.8 287.5,-274.18 289.74,-274.61 291.87,-275.08 293.91,-275.59 295.84,-276.15 297.65,-276.74 299.34,-277.37 300.9,-278.04 302.33,-278.74 303.63,-279.47 304.79,-280.24 305.81,-281.03 306.69,-281.84 307.43,-282.68 308.03,-283.54 308.48,-284.42 308.8,-285.32 308.99,-286.23 309.04,-287.15 308.95,-288.08 308.75,-289.02 308.41,-289.96 307.97,-290.91 307.4,-291.85 306.73,-292.78 305.96,-293.72 305.09,-294.64 304.13,-295.55 303.08,-296.44 301.96,-297.32 300.76,-298.19 299.49,-299.03 298.16,-299.84 296.78,-300.63 295.34,-301.4 293.86,-302.13 292.33,-302.83 290.77,-303.5 289.17,-304.13 287.55,-304.72 285.9,-305.27 284.23,-305.79 282.54,-306.26 280.84,-306.69 279.12,-307.07 277.39,-307.41 275.65,-307.7 273.91,-307.94 272.15,-308.14 270.4,-308.29 268.64,-308.38 266.88,-308.43 265.12,-308.43 263.36,-308.38 261.6,-308.29 259.85,-308.14 258.09,-307.94 256.35,-307.7 254.61,-307.41 252.88,-307.07 251.16,-306.69 249.46,-306.26 247.77,-305.79 246.1,-305.27 244.45,-304.72 242.83,-304.13 241.23,-303.5 239.67,-302.83 238.14,-302.13 236.66,-301.4 235.22,-300.63 233.84,-299.84 232.51,-299.03 231.24,-298.19 230.04,-297.32 228.92,-296.44 227.87,-295.55 226.91,-294.64 226.04,-293.72 225.27,-292.78 224.6,-291.85 224.03,-290.91 223.59,-289.96 223.25,-289.02 223.05,-288.08 222.96,-287.15 223.01,-286.23 223.2,-285.32 223.52,-284.42 223.97,-283.54 224.57,-282.68 225.31,-281.84 226.19,-281.03 227.21,-280.24 228.37,-279.47 229.67,-278.74 231.1,-278.04 232.66,-277.37 234.35,-276.74 236.16,-276.15 238.09,-275.59 240.13,-275.08 242.26,-274.61 244.5,-274.18 246.82,-273.8 249.21,-273.46 251.68,-273.17 254.2,-272.93 256.77,-272.73 259.38,-272.58 262.02,-272.48 264.67,-272.43 267.33,-272.43 269.98,-272.48"/>
<text text-anchor="middle" x="266" y="-287.33" font-family="Times New Roman,serif" font-size="12.00">Executable</text>
</g>
<!-- legendNode1 -->
<g id="node2" class="node">
<title>legendNode1</title>
<polygon fill="none" stroke="black" points="373.94,-201.98 373.94,-216.89 343.52,-227.43 300.48,-227.43 270.06,-216.89 270.06,-201.98 300.48,-191.43 343.52,-191.43 373.94,-201.98"/>
<text text-anchor="middle" x="322" y="-206.33" font-family="Times New Roman,serif" font-size="12.00">Static Library</text>
</g>
<!-- legendNode0&#45;&gt;legendNode1 -->
<g id="edge1" class="edge">
<title>legendNode0&#45;&gt;legendNode1</title>
<path fill="none" stroke="black" d="M277.88,-272.68C285.35,-262.14 295.14,-248.33 303.6,-236.39"/>
<polygon fill="black" stroke="black" points="306.83,-238.89 309.75,-228.71 301.12,-234.84 306.83,-238.89"/>
</g>
<!-- legendNode2 -->
<g id="node3" class="node">
<title>legendNode2</title>
<polygon fill="none" stroke="black" points="509.76,-201.98 509.76,-216.89 476.51,-227.43 429.49,-227.43 396.24,-216.89 396.24,-201.98 429.49,-191.43 476.51,-191.43 509.76,-201.98"/>
<polygon fill="none" stroke="black" points="513.77,-199.05 513.77,-219.82 477.13,-231.43 428.87,-231.43 392.23,-219.82 392.23,-199.05 428.87,-187.43 477.13,-187.43 513.77,-199.05"/>
<text text-anchor="middle" x="453" y="-206.33" font-family="Times New Roman,serif" font-size="12.00">Shared Library</text>
</g>
<!-- legendNode0&#45;&gt;legendNode2 -->
<g id="edge2" class="edge">
<title>legendNode0&#45;&gt;legendNode2</title>
<path fill="none" stroke="black" d="M297.3,-276.21C326.32,-263.95 369.97,-245.51 403.68,-231.27"/>
<polygon fill="black" stroke="black" points="404.95,-234.11 412.8,-227 402.22,-227.66 404.95,-234.11"/>
</g>
<!-- legendNode3 -->
<g id="node4" class="node">
<title>legendNode3</title>
<polygon fill="none" stroke="black" points="141.75,-201.98 141.75,-216.89 107.34,-227.43 58.66,-227.43 24.25,-216.89 24.25,-201.98 58.66,-191.43 107.34,-191.43 141.75,-201.98"/>
<polygon fill="none" stroke="black" points="145.76,-199.02 145.76,-219.85 107.94,-231.43 58.06,-231.43 20.24,-219.85 20.24,-199.02 58.06,-187.43 107.94,-187.43 145.76,-199.02"/>
<polygon fill="none" stroke="black" points="149.77,-196.07 149.77,-222.8 108.54,-235.43 57.46,-235.43 16.23,-222.8 16.23,-196.07 57.46,-183.43 108.54,-183.43 149.77,-196.07"/>
<text text-anchor="middle" x="83" y="-206.33" font-family="Times New Roman,serif" font-size="12.00">Module Library</text>
</g>
<!-- legendNode0&#45;&gt;legendNode3 -->
<!-- legendNode7 -->
<g id="node8" class="node">
<title>legendNode7</title>
<polygon fill="none" stroke="black" points="252,-227.43 168,-227.43 168,-191.43 252,-191.43 252,-227.43"/>
<text text-anchor="middle" x="210" y="-206.33" font-family="Times New Roman,serif" font-size="12.00">Custom Target</text>
</g>
<!-- legendNode0&#45;&gt;legendNode7 -->
<!-- legendNode4 -->
<g id="node5" class="node">
<title>legendNode4</title>
<polygon fill="none" stroke="black" points="375.01,-108.28 305,-120.72 234.99,-108.28 261.73,-88.15 348.27,-88.15 375.01,-108.28"/>
<text text-anchor="middle" x="305" y="-99.62" font-family="Times New Roman,serif" font-size="12.00">Interface Library</text>
</g>
<!-- legendNode1&#45;&gt;legendNode4 -->
<g id="edge4" class="edge">
<title>legendNode1&#45;&gt;legendNode4</title>
<path fill="none" stroke="black" stroke-dasharray="5,2" d="M319.19,-191.14C316.56,-174.9 312.57,-150.33 309.49,-131.37"/>
<polygon fill="black" stroke="black" points="312.81,-131 307.75,-121.69 305.9,-132.12 312.81,-131"/>
<text text-anchor="middle" x="339.5" y="-154.23" font-family="Times New Roman,serif" font-size="14.00">Interface</text>
</g>
<!-- legendNode5 -->
<g id="node6" class="node">
<title>legendNode5</title>
<polygon fill="none" stroke="black" points="512.92,-102.72 482.96,-120.72 423.04,-120.72 393.08,-102.72 423.04,-84.72 482.96,-84.72 512.92,-102.72"/>
<text text-anchor="middle" x="453" y="-99.62" font-family="Times New Roman,serif" font-size="12.00">Object Library</text>
</g>
<!-- legendNode2&#45;&gt;legendNode5 -->
<g id="edge5" class="edge">
<title>legendNode2&#45;&gt;legendNode5</title>
<path fill="none" stroke="black" stroke-dasharray="1,5" d="M453,-186.99C453,-170.99 453,-148.99 453,-131.61"/>
<polygon fill="black" stroke="black" points="456.5,-131.98 453,-121.98 449.5,-131.98 456.5,-131.98"/>
<text text-anchor="middle" x="472.5" y="-154.23" font-family="Times New Roman,serif" font-size="14.00">Private</text>
</g>
<!-- legendNode6 -->
<g id="node7" class="node">
<title>legendNode6</title>
<polygon fill="none" stroke="black" points="149.05,-98.71 135.97,-113.94 83,-120.72 30.03,-113.94 16.95,-98.71 53.6,-86.5 112.4,-86.5 149.05,-98.71"/>
<text text-anchor="middle" x="83" y="-99.62" font-family="Times New Roman,serif" font-size="12.00">Unknown Library</text>
</g>
<!-- legendNode3&#45;&gt;legendNode6 -->
<g id="edge6" class="edge">
<title>legendNode3&#45;&gt;legendNode6</title>
<path fill="none" stroke="black" d="M83,-183.09C83,-167.6 83,-147.76 83,-131.8"/>
<polygon fill="black" stroke="black" points="86.5,-131.98 83,-121.98 79.5,-131.98 86.5,-131.98"/>
</g>
<!-- node0 -->
<g id="node9" class="node">
<title>node0</title>
<polygon fill="none" stroke="black" points="1397.14,-95.26 1397.14,-110.17 1380.07,-120.72 1355.93,-120.72 1338.86,-110.17 1338.86,-95.26 1355.93,-84.72 1380.07,-84.72 1397.14,-95.26"/>
<text text-anchor="middle" x="1368" y="-99.62" font-family="Times New Roman,serif" font-size="12.00">ImGui</text>
</g>
<!-- node1 -->
<g id="node10" class="node">
<title>node1</title>
<polygon fill="none" stroke="black" points="814.8,-95.26 814.8,-110.17 796.76,-120.72 771.24,-120.72 753.2,-110.17 753.2,-95.26 771.24,-84.72 796.76,-84.72 814.8,-95.26"/>
<text text-anchor="middle" x="784" y="-99.62" font-family="Times New Roman,serif" font-size="12.00">box2d</text>
</g>
<!-- node2 -->
<g id="node11" class="node">
<title>node2</title>
<polygon fill="none" stroke="black" points="1345.35,-272.48 1349.56,-272.58 1353.72,-272.73 1357.83,-272.93 1361.85,-273.17 1365.79,-273.46 1369.61,-273.8 1373.31,-274.18 1376.87,-274.61 1380.28,-275.08 1383.53,-275.59 1386.61,-276.15 1389.5,-276.74 1392.19,-277.37 1394.68,-278.04 1396.97,-278.74 1399.04,-279.47 1400.89,-280.24 1402.52,-281.03 1403.92,-281.84 1405.1,-282.68 1406.06,-283.54 1406.79,-284.42 1407.3,-285.32 1407.59,-286.23 1407.67,-287.15 1407.54,-288.08 1407.21,-289.02 1406.68,-289.96 1405.96,-290.91 1405.07,-291.85 1404,-292.78 1402.76,-293.72 1401.38,-294.64 1399.84,-295.55 1398.17,-296.44 1396.38,-297.32 1394.46,-298.19 1392.44,-299.03 1390.32,-299.84 1388.11,-300.63 1385.82,-301.4 1383.45,-302.13 1381.01,-302.83 1378.52,-303.5 1375.98,-304.13 1373.39,-304.72 1370.75,-305.27 1368.09,-305.79 1365.39,-306.26 1362.67,-306.69 1359.93,-307.07 1357.17,-307.41 1354.4,-307.7 1351.61,-307.94 1348.82,-308.14 1346.02,-308.29 1343.21,-308.38 1340.4,-308.43 1337.6,-308.43 1334.79,-308.38 1331.98,-308.29 1329.18,-308.14 1326.39,-307.94 1323.6,-307.7 1320.83,-307.41 1318.07,-307.07 1315.33,-306.69 1312.61,-306.26 1309.91,-305.79 1307.25,-305.27 1304.61,-304.72 1302.02,-304.13 1299.48,-303.5 1296.99,-302.83 1294.55,-302.13 1292.18,-301.4 1289.89,-300.63 1287.68,-299.84 1285.56,-299.03 1283.54,-298.19 1281.62,-297.32 1279.83,-296.44 1278.16,-295.55 1276.62,-294.64 1275.24,-293.72 1274,-292.78 1272.93,-291.85 1272.04,-290.91 1271.32,-289.96 1270.79,-289.02 1270.46,-288.08 1270.33,-287.15 1270.41,-286.23 1270.7,-285.32 1271.21,-284.42 1271.94,-283.54 1272.9,-282.68 1274.08,-281.84 1275.48,-281.03 1277.11,-280.24 1278.96,-279.47 1281.03,-278.74 1283.32,-278.04 1285.81,-277.37 1288.5,-276.74 1291.39,-276.15 1294.47,-275.59 1297.72,-275.08 1301.13,-274.61 1304.69,-274.18 1308.39,-273.8 1312.21,-273.46 1316.15,-273.17 1320.17,-272.93 1324.28,-272.73 1328.44,-272.58 1332.65,-272.48 1336.88,-272.43 1341.12,-272.43 1345.35,-272.48"/>
<text text-anchor="middle" x="1339" y="-287.33" font-family="Times New Roman,serif" font-size="12.00">ge_cpp_application</text>
</g>
<!-- node3 -->
<g id="node12" class="node">
<title>node3</title>
<polygon fill="none" stroke="black" points="1395.77,-201.98 1395.77,-216.89 1362.52,-227.43 1315.48,-227.43 1282.23,-216.89 1282.23,-201.98 1315.48,-191.43 1362.52,-191.43 1395.77,-201.98"/>
<text text-anchor="middle" x="1339" y="-206.33" font-family="Times New Roman,serif" font-size="12.00">ge_cpp_engine</text>
</g>
<!-- node2&#45;&gt;node3 -->
<g id="edge18" class="edge">
<title>node2&#45;&gt;node3</title>
<path fill="none" stroke="black" stroke-dasharray="1,5" d="M1339,-272.29C1339,-262.42 1339,-249.77 1339,-238.49"/>
<polygon fill="black" stroke="black" points="1342.5,-238.82 1339,-228.82 1335.5,-238.82 1342.5,-238.82"/>
</g>
<!-- node3&#45;&gt;node0 -->
<g id="edge8" class="edge">
<title>node3&#45;&gt;node0</title>
<path fill="none" stroke="black" d="M1343.79,-191.14C1348.28,-174.92 1355.07,-150.4 1360.32,-131.44"/>
<polygon fill="black" stroke="black" points="1363.91,-132.61 1363.2,-122.03 1357.16,-130.74 1363.91,-132.61"/>
</g>
<!-- node3&#45;&gt;node1 -->
<g id="edge9" class="edge">
<title>node3&#45;&gt;node1</title>
<path fill="none" stroke="black" d="M1282.01,-209.25C1184.29,-208.67 980.19,-198.75 824,-132.43 819.14,-130.37 814.3,-127.63 809.75,-124.66"/>
<polygon fill="black" stroke="black" points="812.09,-121.32 801.9,-118.39 808.04,-127.03 812.09,-121.32"/>
</g>
<!-- node4 -->
<g id="node13" class="node">
<title>node4</title>
<polygon fill="none" stroke="black" points="887,-95.26 887,-110.17 871.18,-120.72 848.82,-120.72 833,-110.17 833,-95.26 848.82,-84.72 871.18,-84.72 887,-95.26"/>
<text text-anchor="middle" x="860" y="-99.62" font-family="Times New Roman,serif" font-size="12.00">glad</text>
</g>
<!-- node3&#45;&gt;node4 -->
<g id="edge10" class="edge">
<title>node3&#45;&gt;node4</title>
<path fill="none" stroke="black" d="M1288.38,-199.51C1222.96,-188.01 1105.53,-167.46 1005,-150.43 956.59,-142.23 940.86,-152.39 896,-132.43 891.73,-130.53 887.53,-128 883.59,-125.23"/>
<polygon fill="black" stroke="black" points="886,-121.89 875.97,-118.49 881.69,-127.41 886,-121.89"/>
</g>
<!-- node5 -->
<g id="node14" class="node">
<title>node5</title>
<polygon fill="none" stroke="black" points="735,-95.26 735,-110.17 719.18,-120.72 696.82,-120.72 681,-110.17 681,-95.26 696.82,-84.72 719.18,-84.72 735,-95.26"/>
<text text-anchor="middle" x="708" y="-99.62" font-family="Times New Roman,serif" font-size="12.00">glfw</text>
</g>
<!-- node3&#45;&gt;node5 -->
<g id="edge12" class="edge">
<title>node3&#45;&gt;node5</title>
<path fill="none" stroke="black" d="M1281.82,-206.13C1193.4,-201.9 1018.4,-190.88 872,-165.43 814.12,-155.38 796.57,-158.66 744,-132.43 739.9,-130.39 735.82,-127.81 731.97,-125.05"/>
<polygon fill="black" stroke="black" points="734.53,-121.83 724.49,-118.44 730.22,-127.35 734.53,-121.83"/>
</g>
<!-- node7 -->
<g id="node16" class="node">
<title>node7</title>
<polygon fill="none" stroke="black" points="1520.38,-111.97 1468,-132.65 1415.62,-111.97 1435.62,-78.5 1500.38,-78.5 1520.38,-111.97"/>
<text text-anchor="middle" x="1468" y="-106.12" font-family="Times New Roman,serif" font-size="12.00">glm</text>
<text text-anchor="middle" x="1468" y="-93.12" font-family="Times New Roman,serif" font-size="12.00">(glm::glm)</text>
</g>
<!-- node3&#45;&gt;node7 -->
<g id="edge13" class="edge">
<title>node3&#45;&gt;node7</title>
<path fill="none" stroke="black" d="M1360.3,-191.14C1380.7,-174.59 1411.76,-149.37 1435.29,-130.27"/>
<polygon fill="black" stroke="black" points="1437.03,-132.56 1442.58,-123.54 1432.61,-127.12 1437.03,-132.56"/>
</g>
<!-- node8 -->
<g id="node17" class="node">
<title>node8</title>
<polygon fill="none" stroke="black" points="1594.03,-98.71 1588.48,-113.94 1566,-120.72 1543.52,-113.94 1537.97,-98.71 1553.53,-86.5 1578.47,-86.5 1594.03,-98.71"/>
<text text-anchor="middle" x="1566" y="-99.62" font-family="Times New Roman,serif" font-size="12.00">glu32</text>
</g>
<!-- node3&#45;&gt;node8 -->
<g id="edge14" class="edge">
<title>node3&#45;&gt;node8</title>
<path fill="none" stroke="black" d="M1378.68,-196.19C1418.18,-183.17 1479.83,-160.6 1529,-132.43 1533.61,-129.79 1538.27,-126.63 1542.67,-123.39"/>
<polygon fill="black" stroke="black" points="1544.46,-125.65 1550.2,-116.75 1540.16,-120.13 1544.46,-125.65"/>
</g>
<!-- node9 -->
<g id="node18" class="node">
<title>node9</title>
<polygon fill="none" stroke="black" points="1692.12,-98.71 1684.18,-113.94 1652,-120.72 1619.82,-113.94 1611.88,-98.71 1634.14,-86.5 1669.86,-86.5 1692.12,-98.71"/>
<text text-anchor="middle" x="1652" y="-99.62" font-family="Times New Roman,serif" font-size="12.00">opengl32</text>
</g>
<!-- node3&#45;&gt;node9 -->
<g id="edge15" class="edge">
<title>node3&#45;&gt;node9</title>
<path fill="none" stroke="black" d="M1386.53,-198.66C1440.39,-186.69 1530.16,-164.06 1603,-132.43 1609.68,-129.53 1616.59,-125.91 1623.04,-122.23"/>
<polygon fill="black" stroke="black" points="1624.26,-124.98 1631.07,-116.87 1620.69,-118.96 1624.26,-124.98"/>
</g>
<!-- node10 -->
<g id="node19" class="node">
<title>node10</title>
<polygon fill="none" stroke="black" points="1321.24,-91.93 1321.24,-113.51 1281.26,-128.76 1224.74,-128.76 1184.76,-113.51 1184.76,-91.93 1224.74,-76.67 1281.26,-76.67 1321.24,-91.93"/>
<text text-anchor="middle" x="1253" y="-106.12" font-family="Times New Roman,serif" font-size="12.00">spdlog</text>
<text text-anchor="middle" x="1253" y="-93.12" font-family="Times New Roman,serif" font-size="12.00">(spdlog::spdlog)</text>
</g>
<!-- node3&#45;&gt;node10 -->
<g id="edge17" class="edge">
<title>node3&#45;&gt;node10</title>
<path fill="none" stroke="black" d="M1324.8,-191.14C1312.83,-176.57 1295.34,-155.28 1280.63,-137.36"/>
<polygon fill="black" stroke="black" points="1282.71,-135.38 1273.66,-129.87 1277.3,-139.82 1282.71,-135.38"/>
</g>
<!-- node6 -->
<g id="node15" class="node">
<title>node6</title>
<polygon fill="none" stroke="black" points="1108.07,-23.56 1036,-36 963.93,-23.56 991.46,-3.44 1080.54,-3.44 1108.07,-23.56"/>
<text text-anchor="middle" x="1036" y="-14.9" font-family="Times New Roman,serif" font-size="12.00">Threads::Threads</text>
</g>
<!-- node5&#45;&gt;node6 -->
<g id="edge11" class="edge">
<title>node5&#45;&gt;node6</title>
<path fill="none" stroke="black" stroke-dasharray="1,5" d="M723,-87.02C729.08,-81.84 736.44,-76.45 744,-73 810.81,-42.51 893.68,-29.23 954.05,-23.45"/>
<polygon fill="black" stroke="black" points="954.03,-26.88 963.67,-22.49 953.4,-19.91 954.03,-26.88"/>
</g>
<!-- node10&#45;&gt;node6 -->
<g id="edge16" class="edge">
<title>node10&#45;&gt;node6</title>
<path fill="none" stroke="black" d="M1205.38,-83.56C1167.06,-68.96 1113.77,-48.64 1077.25,-34.72"/>
<polygon fill="black" stroke="black" points="1079.01,-31.27 1068.42,-30.98 1076.52,-37.81 1079.01,-31.27"/>
</g>
<!-- node11 -->
<g id="node20" class="node">
<title>node11</title>
<polygon fill="none" stroke="black" points="585,-95.26 585,-110.17 569.18,-120.72 546.82,-120.72 531,-110.17 531,-95.26 546.82,-84.72 569.18,-84.72 585,-95.26"/>
<text text-anchor="middle" x="558" y="-99.62" font-family="Times New Roman,serif" font-size="12.00">imgui</text>
</g>
<!-- node12 -->
<g id="node21" class="node">
<title>node12</title>
<polygon fill="none" stroke="black" points="662.97,-95.26 662.97,-110.17 645.41,-120.72 620.59,-120.72 603.03,-110.17 603.03,-95.26 620.59,-84.72 645.41,-84.72 662.97,-95.26"/>
<text text-anchor="middle" x="633" y="-99.62" font-family="Times New Roman,serif" font-size="12.00">sajson</text>
</g>
<!-- node13 -->
<g id="node22" class="node">
<title>node13</title>
<polygon fill="none" stroke="black" points="1167.21,-111.97 1036,-132.65 904.79,-111.97 954.91,-78.5 1117.09,-78.5 1167.21,-111.97"/>
<text text-anchor="middle" x="1036" y="-106.12" font-family="Times New Roman,serif" font-size="12.00">spdlog_header_only</text>
<text text-anchor="middle" x="1036" y="-93.12" font-family="Times New Roman,serif" font-size="12.00">(spdlog::spdlog_header_only)</text>
</g>
<!-- node13&#45;&gt;node6 -->
<g id="edge19" class="edge">
<title>node13&#45;&gt;node6</title>
<path fill="none" stroke="black" stroke-dasharray="5,2" d="M1036,-78.23C1036,-68.59 1036,-57.33 1036,-47.24"/>
<polygon fill="black" stroke="black" points="1039.5,-47.49 1036,-37.49 1032.5,-47.49 1039.5,-47.49"/>
</g>
<!-- node14 -->
<g id="node23" class="node">
<title>node14</title>
<polygon fill="none" stroke="black" points="704.01,-191.48 706.01,-191.58 707.98,-191.73 709.93,-191.93 711.84,-192.17 713.7,-192.46 715.51,-192.8 717.27,-193.18 718.96,-193.61 720.57,-194.08 722.11,-194.59 723.57,-195.15 724.94,-195.74 726.22,-196.37 727.4,-197.04 728.48,-197.74 729.47,-198.47 730.34,-199.24 731.12,-200.03 731.78,-200.84 732.34,-201.68 732.79,-202.54 733.14,-203.42 733.38,-204.32 733.52,-205.23 733.56,-206.15 733.5,-207.08 733.34,-208.02 733.09,-208.96 732.75,-209.91 732.32,-210.85 731.82,-211.78 731.23,-212.72 730.57,-213.64 729.85,-214.55 729.06,-215.44 728.2,-216.32 727.3,-217.19 726.34,-218.03 725.33,-218.84 724.28,-219.63 723.2,-220.4 722.07,-221.13 720.92,-221.83 719.74,-222.5 718.53,-223.13 717.3,-223.72 716.06,-224.27 714.79,-224.79 713.51,-225.26 712.22,-225.69 710.92,-226.07 709.62,-226.41 708.3,-226.7 706.98,-226.94 705.66,-227.14 704.33,-227.29 703,-227.38 701.67,-227.43 700.33,-227.43 699,-227.38 697.67,-227.29 696.34,-227.14 695.02,-226.94 693.7,-226.7 692.38,-226.41 691.08,-226.07 689.78,-225.69 688.49,-225.26 687.21,-224.79 685.94,-224.27 684.7,-223.72 683.47,-223.13 682.26,-222.5 681.08,-221.83 679.93,-221.13 678.8,-220.4 677.72,-219.63 676.67,-218.84 675.66,-218.03 674.7,-217.19 673.8,-216.32 672.94,-215.44 672.15,-214.55 671.43,-213.64 670.77,-212.72 670.18,-211.78 669.68,-210.85 669.25,-209.91 668.91,-208.96 668.66,-208.02 668.5,-207.08 668.44,-206.15 668.48,-205.23 668.62,-204.32 668.86,-203.42 669.21,-202.54 669.66,-201.68 670.22,-200.84 670.88,-200.03 671.66,-199.24 672.53,-198.47 673.52,-197.74 674.6,-197.04 675.78,-196.37 677.06,-195.74 678.43,-195.15 679.89,-194.59 681.43,-194.08 683.04,-193.61 684.73,-193.18 686.49,-192.8 688.3,-192.46 690.16,-192.17 692.07,-191.93 694.02,-191.73 695.99,-191.58 697.99,-191.48 699.99,-191.43 702.01,-191.43 704.01,-191.48"/>
<text text-anchor="middle" x="701" y="-206.33" font-family="Times New Roman,serif" font-size="12.00">testbed</text>
</g>
<!-- node14&#45;&gt;node1 -->
<g id="edge20" class="edge">
<title>node14&#45;&gt;node1</title>
<path fill="none" stroke="black" stroke-dasharray="1,5" d="M713.97,-192.07C727.33,-175.21 748.35,-148.7 763.87,-129.11"/>
<polygon fill="black" stroke="black" points="767.1,-131.67 770.57,-121.66 761.62,-127.32 767.1,-131.67"/>
</g>
<!-- node14&#45;&gt;node4 -->
<g id="edge21" class="edge">
<title>node14&#45;&gt;node4</title>
<path fill="none" stroke="black" stroke-dasharray="1,5" d="M723.72,-194.84C753.99,-176.66 805.83,-145.22 824,-132.43 827.58,-129.92 831.27,-127.17 834.86,-124.39"/>
<polygon fill="black" stroke="black" points="836.8,-126.53 842.47,-117.58 832.46,-121.04 836.8,-126.53"/>
</g>
<!-- node14&#45;&gt;node5 -->
<g id="edge22" class="edge">
<title>node14&#45;&gt;node5</title>
<path fill="none" stroke="black" stroke-dasharray="1,5" d="M702.16,-191.14C703.23,-175.07 704.85,-150.85 706.11,-131.98"/>
<polygon fill="black" stroke="black" points="709.67,-132.25 706.84,-122.03 702.68,-131.78 709.67,-132.25"/>
</g>
<!-- node14&#45;&gt;node11 -->
<g id="edge23" class="edge">
<title>node14&#45;&gt;node11</title>
<path fill="none" stroke="black" stroke-dasharray="1,5" d="M680.24,-194.2C658.5,-179.18 623.49,-154.64 594,-132.43 590.51,-129.8 586.86,-126.99 583.29,-124.18"/>
<polygon fill="black" stroke="black" points="585.7,-120.83 575.7,-117.35 581.35,-126.31 585.7,-120.83"/>
</g>
<!-- node14&#45;&gt;node12 -->
<g id="edge24" class="edge">
<title>node14&#45;&gt;node12</title>
<path fill="none" stroke="black" stroke-dasharray="1,5" d="M690.38,-192.07C679.59,-175.46 662.72,-149.49 650.06,-129.99"/>
<polygon fill="black" stroke="black" points="652.61,-128.49 644.23,-122.01 646.74,-132.3 652.61,-128.49"/>
</g>
<!-- node15 -->
<g id="node24" class="node">
<title>node15</title>
<polygon fill="none" stroke="black" points="790.27,-191.48 792.43,-191.58 794.57,-191.73 796.68,-191.93 798.75,-192.17 800.77,-192.46 802.74,-192.8 804.64,-193.18 806.47,-193.61 808.22,-194.08 809.89,-194.59 811.47,-195.15 812.96,-195.74 814.34,-196.37 815.63,-197.04 816.8,-197.74 817.86,-198.47 818.82,-199.24 819.65,-200.03 820.38,-200.84 820.98,-201.68 821.47,-202.54 821.85,-203.42 822.11,-204.32 822.26,-205.23 822.3,-206.15 822.23,-207.08 822.06,-208.02 821.79,-208.96 821.42,-209.91 820.96,-210.85 820.41,-211.78 819.78,-212.72 819.07,-213.64 818.28,-214.55 817.42,-215.44 816.5,-216.32 815.51,-217.19 814.47,-218.03 813.38,-218.84 812.25,-219.63 811.07,-220.4 809.85,-221.13 808.6,-221.83 807.32,-222.5 806.01,-223.13 804.68,-223.72 803.32,-224.27 801.95,-224.79 800.57,-225.26 799.17,-225.69 797.76,-226.07 796.34,-226.41 794.92,-226.7 793.48,-226.94 792.05,-227.14 790.61,-227.29 789.17,-227.38 787.72,-227.43 786.28,-227.43 784.83,-227.38 783.39,-227.29 781.95,-227.14 780.52,-226.94 779.08,-226.7 777.66,-226.41 776.24,-226.07 774.83,-225.69 773.43,-225.26 772.05,-224.79 770.68,-224.27 769.32,-223.72 767.99,-223.13 766.68,-222.5 765.4,-221.83 764.15,-221.13 762.93,-220.4 761.75,-219.63 760.62,-218.84 759.53,-218.03 758.49,-217.19 757.5,-216.32 756.58,-215.44 755.72,-214.55 754.93,-213.64 754.22,-212.72 753.59,-211.78 753.04,-210.85 752.58,-209.91 752.21,-208.96 751.94,-208.02 751.77,-207.08 751.7,-206.15 751.74,-205.23 751.89,-204.32 752.15,-203.42 752.53,-202.54 753.02,-201.68 753.62,-200.84 754.35,-200.03 755.18,-199.24 756.14,-198.47 757.2,-197.74 758.37,-197.04 759.66,-196.37 761.04,-195.74 762.53,-195.15 764.11,-194.59 765.78,-194.08 767.53,-193.61 769.36,-193.18 771.26,-192.8 773.23,-192.46 775.25,-192.17 777.32,-191.93 779.43,-191.73 781.57,-191.58 783.73,-191.48 785.91,-191.43 788.09,-191.43 790.27,-191.48"/>
<text text-anchor="middle" x="787" y="-206.33" font-family="Times New Roman,serif" font-size="12.00">unit_test</text>
</g>
<!-- node15&#45;&gt;node1 -->
<g id="edge25" class="edge">
<title>node15&#45;&gt;node1</title>
<path fill="none" stroke="black" stroke-dasharray="1,5" d="M786.5,-191.14C786.04,-175.07 785.35,-150.85 784.81,-131.98"/>
<polygon fill="black" stroke="black" points="788.28,-131.93 784.5,-122.03 781.28,-132.13 788.28,-131.93"/>
</g>
</g>
</svg>
