<?xml version="1.0" encoding="UTF-8" standalone="no"?>
<!DOCTYPE svg PUBLIC "-//W3C//DTD SVG 1.1//EN"
 "http://www.w3.org/Graphics/SVG/1.1/DTD/svg11.dtd">
<!-- Generated by graphviz version 8.0.1 (20230327.1645)
 -->
<!-- Title: ge_cpp_engine Pages: 1 -->
<svg width="738pt" height="211pt"
 viewBox="0.00 0.00 738.44 211.43" xmlns="http://www.w3.org/2000/svg" xmlns:xlink="http://www.w3.org/1999/xlink">
<g id="graph0" class="graph" transform="scale(1 1) rotate(0) translate(4 207.43)">
<title>ge_cpp_engine</title>
<polygon fill="white" stroke="none" points="-4,4 -4,-207.43 734.44,-207.43 734.44,4 -4,4"/>
<!-- node3 -->
<g id="node1" class="node">
<title>node3</title>
<polygon fill="none" stroke="black" points="360.09,-177.98 360.09,-192.89 326.83,-203.43 279.8,-203.43 246.55,-192.89 246.55,-177.98 279.8,-167.43 326.83,-167.43 360.09,-177.98"/>
<text text-anchor="middle" x="303.32" y="-182.33" font-family="Times New Roman,serif" font-size="12.00">ge_cpp_engine</text>
</g>
<!-- node0 -->
<g id="node2" class="node">
<title>node0</title>
<polygon fill="none" stroke="black" points="58.45,-94.26 58.45,-109.17 41.39,-119.72 17.25,-119.72 0.18,-109.17 0.18,-94.26 17.25,-83.72 41.39,-83.72 58.45,-94.26"/>
<text text-anchor="middle" x="29.32" y="-98.62" font-family="Times New Roman,serif" font-size="12.00">ImGui</text>
</g>
<!-- node3&#45;&gt;node0 -->
<g id="edge1" class="edge">
<title>node3&#45;&gt;node0</title>
<path fill="none" stroke="black" d="M246.3,-178.52C197.09,-171.84 125.04,-158.19 67.32,-131.43 62.89,-129.38 58.49,-126.75 54.34,-123.92"/>
<polygon fill="black" stroke="black" points="56.84,-120.68 46.72,-117.54 52.67,-126.3 56.84,-120.68"/>
</g>
<!-- node1 -->
<g id="node3" class="node">
<title>node1</title>
<polygon fill="none" stroke="black" points="138.12,-94.26 138.12,-109.17 120.08,-119.72 94.56,-119.72 76.52,-109.17 76.52,-94.26 94.56,-83.72 120.08,-83.72 138.12,-94.26"/>
<text text-anchor="middle" x="107.32" y="-98.62" font-family="Times New Roman,serif" font-size="12.00">box2d</text>
</g>
<!-- node3&#45;&gt;node1 -->
<g id="edge2" class="edge">
<title>node3&#45;&gt;node1</title>
<path fill="none" stroke="black" d="M259.89,-173.41C227.79,-164.39 183.56,-150.08 147.32,-131.43 142.71,-129.07 138.05,-126.21 133.61,-123.23"/>
<polygon fill="black" stroke="black" points="136.09,-119.99 125.91,-117.06 132.04,-125.7 136.09,-119.99"/>
</g>
<!-- node4 -->
<g id="node4" class="node">
<title>node4</title>
<polygon fill="none" stroke="black" points="210.32,-94.26 210.32,-109.17 194.5,-119.72 172.13,-119.72 156.32,-109.17 156.32,-94.26 172.13,-83.72 194.5,-83.72 210.32,-94.26"/>
<text text-anchor="middle" x="183.32" y="-98.62" font-family="Times New Roman,serif" font-size="12.00">glad</text>
</g>
<!-- node3&#45;&gt;node4 -->
<g id="edge3" class="edge">
<title>node3&#45;&gt;node4</title>
<path fill="none" stroke="black" d="M275.96,-168.23C259.29,-158.1 237.73,-144.52 219.32,-131.43 215.75,-128.9 212.07,-126.14 208.48,-123.36"/>
<polygon fill="black" stroke="black" points="210.88,-120.01 200.87,-116.55 206.54,-125.5 210.88,-120.01"/>
</g>
<!-- node5 -->
<g id="node5" class="node">
<title>node5</title>
<polygon fill="none" stroke="black" points="282.32,-94.26 282.32,-109.17 266.5,-119.72 244.13,-119.72 228.32,-109.17 228.32,-94.26 244.13,-83.72 266.5,-83.72 282.32,-94.26"/>
<text text-anchor="middle" x="255.32" y="-98.62" font-family="Times New Roman,serif" font-size="12.00">glfw</text>
</g>
<!-- node3&#45;&gt;node5 -->
<g id="edge4" class="edge">
<title>node3&#45;&gt;node5</title>
<path fill="none" stroke="black" d="M293.14,-167.1C286.71,-156.16 278.28,-141.8 271,-129.42"/>
<polygon fill="black" stroke="black" points="273.57,-127.87 265.48,-121.02 267.53,-131.42 273.57,-127.87"/>
</g>
<!-- node7 -->
<g id="node7" class="node">
<title>node7</title>
<polygon fill="none" stroke="black" points="404.7,-110.97 352.32,-131.65 299.93,-110.97 319.94,-77.5 384.69,-77.5 404.7,-110.97"/>
<text text-anchor="middle" x="352.32" y="-105.12" font-family="Times New Roman,serif" font-size="12.00">glm</text>
<text text-anchor="middle" x="352.32" y="-92.12" font-family="Times New Roman,serif" font-size="12.00">(glm::glm)</text>
</g>
<!-- node3&#45;&gt;node7 -->
<g id="edge6" class="edge">
<title>node3&#45;&gt;node7</title>
<path fill="none" stroke="black" d="M313.71,-167.1C319.18,-157.97 326.09,-146.46 332.53,-135.71"/>
<polygon fill="black" stroke="black" points="335.9,-137.91 338.04,-127.53 329.89,-134.31 335.9,-137.91"/>
</g>
<!-- node8 -->
<g id="node8" class="node">
<title>node8</title>
<polygon fill="none" stroke="black" points="478.34,-97.71 472.79,-112.94 450.32,-119.72 427.84,-112.94 422.29,-97.71 437.84,-85.5 462.79,-85.5 478.34,-97.71"/>
<text text-anchor="middle" x="450.32" y="-98.62" font-family="Times New Roman,serif" font-size="12.00">glu32</text>
</g>
<!-- node3&#45;&gt;node8 -->
<g id="edge7" class="edge">
<title>node3&#45;&gt;node8</title>
<path fill="none" stroke="black" d="M337.01,-170.42C359.29,-160.62 388.81,-146.61 413.32,-131.43 417.83,-128.64 422.45,-125.4 426.83,-122.13"/>
<polygon fill="black" stroke="black" points="428.62,-124.39 434.36,-115.49 424.32,-118.87 428.62,-124.39"/>
</g>
<!-- node9 -->
<g id="node9" class="node">
<title>node9</title>
<polygon fill="none" stroke="black" points="576.44,-97.71 568.49,-112.94 536.32,-119.72 504.14,-112.94 496.19,-97.71 518.46,-85.5 554.17,-85.5 576.44,-97.71"/>
<text text-anchor="middle" x="536.32" y="-98.62" font-family="Times New Roman,serif" font-size="12.00">opengl32</text>
</g>
<!-- node3&#45;&gt;node9 -->
<g id="edge8" class="edge">
<title>node3&#45;&gt;node9</title>
<path fill="none" stroke="black" d="M350.17,-174.36C388.04,-165.42 442.26,-150.77 487.32,-131.43 494.01,-128.56 500.93,-124.95 507.38,-121.27"/>
<polygon fill="black" stroke="black" points="508.6,-124.03 515.41,-115.91 505.02,-118.01 508.6,-124.03"/>
</g>
<!-- node10 -->
<g id="node10" class="node">
<title>node10</title>
<polygon fill="none" stroke="black" points="730.55,-90.93 730.55,-112.51 690.58,-127.76 634.05,-127.76 594.08,-112.51 594.08,-90.93 634.05,-75.67 690.58,-75.67 730.55,-90.93"/>
<text text-anchor="middle" x="662.32" y="-105.12" font-family="Times New Roman,serif" font-size="12.00">spdlog</text>
<text text-anchor="middle" x="662.32" y="-92.12" font-family="Times New Roman,serif" font-size="12.00">(spdlog::spdlog)</text>
</g>
<!-- node3&#45;&gt;node10 -->
<g id="edge9" class="edge">
<title>node3&#45;&gt;node10</title>
<path fill="none" stroke="black" d="M358.28,-176.96C415.58,-168.5 507.69,-153.03 585.32,-131.43 592.15,-129.53 599.24,-127.29 606.21,-124.9"/>
<polygon fill="black" stroke="black" points="607.06,-127.96 615.32,-121.33 604.73,-121.36 607.06,-127.96"/>
</g>
<!-- node6 -->
<g id="node6" class="node">
<title>node6</title>
<polygon fill="none" stroke="black" points="530.39,-23.56 458.32,-36 386.24,-23.56 413.77,-3.44 502.86,-3.44 530.39,-23.56"/>
<text text-anchor="middle" x="458.32" y="-14.9" font-family="Times New Roman,serif" font-size="12.00">Threads::Threads</text>
</g>
<!-- node5&#45;&gt;node6 -->
<g id="edge5" class="edge">
<title>node5&#45;&gt;node6</title>
<path fill="none" stroke="black" stroke-dasharray="1,5" d="M270.92,-86.21C276.95,-81.18 284.12,-75.84 291.32,-72 326.31,-53.32 368.98,-39.92 402.43,-31.27"/>
<polygon fill="black" stroke="black" points="403.1,-34.46 411.94,-28.62 401.39,-27.67 403.1,-34.46"/>
</g>
<!-- node10&#45;&gt;node6 -->
<g id="edge10" class="edge">
<title>node10&#45;&gt;node6</title>
<path fill="none" stroke="black" d="M616.03,-82.17C580.66,-68.01 532.4,-48.67 498.61,-35.14"/>
<polygon fill="black" stroke="black" points="500.2,-31.61 489.62,-31.14 497.6,-38.1 500.2,-31.61"/>
</g>
</g>
</svg>
