<?xml version="1.0" encoding="UTF-8" standalone="no"?>
<!DOCTYPE svg PUBLIC "-//W3C//DTD SVG 1.1//EN"
 "http://www.w3.org/Graphics/SVG/1.1/DTD/svg11.dtd">
<!-- Generated by graphviz version 8.0.1 (20230327.1645)
 -->
<!-- Title: ge_cpp_engine Pages: 1 -->
<svg width="146pt" height="116pt"
 viewBox="0.00 0.00 145.67 116.00" xmlns="http://www.w3.org/2000/svg" xmlns:xlink="http://www.w3.org/1999/xlink">
<g id="graph0" class="graph" transform="scale(1 1) rotate(0) translate(4 112)">
<title>ge_cpp_engine</title>
<polygon fill="white" stroke="none" points="-4,4 -4,-112 141.67,-112 141.67,4 -4,4"/>
<!-- node3 -->
<g id="node1" class="node">
<title>node3</title>
<polygon fill="none" stroke="black" points="125.61,-10.54 125.61,-25.46 92.35,-36 45.32,-36 12.06,-25.46 12.06,-10.54 45.32,0 92.35,0 125.61,-10.54"/>
<text text-anchor="middle" x="68.83" y="-14.9" font-family="Times New Roman,serif" font-size="12.00">ge_cpp_engine</text>
</g>
<!-- node2 -->
<g id="node2" class="node">
<title>node2</title>
<polygon fill="none" stroke="black" points="75.19,-72.05 79.4,-72.15 83.56,-72.3 87.66,-72.49 91.69,-72.74 95.62,-73.03 99.44,-73.36 103.14,-73.75 106.71,-74.18 110.12,-74.65 113.37,-75.16 116.44,-75.71 119.33,-76.31 122.02,-76.94 124.52,-77.61 126.8,-78.31 128.87,-79.04 130.72,-79.8 132.35,-80.59 133.76,-81.41 134.94,-82.25 135.89,-83.11 136.62,-83.99 137.13,-84.89 137.42,-85.8 137.5,-86.72 137.37,-87.65 137.04,-88.59 136.51,-89.53 135.8,-90.47 134.9,-91.41 133.83,-92.35 132.6,-93.28 131.21,-94.2 129.68,-95.11 128.01,-96.01 126.21,-96.89 124.3,-97.75 122.28,-98.59 120.16,-99.41 117.94,-100.2 115.65,-100.96 113.28,-101.69 110.85,-102.39 108.36,-103.06 105.81,-103.69 103.22,-104.29 100.59,-104.84 97.92,-105.35 95.23,-105.82 92.51,-106.25 89.77,-106.64 87.01,-106.97 84.23,-107.26 81.45,-107.51 78.65,-107.7 75.85,-107.85 73.05,-107.95 70.24,-108 67.43,-108 64.62,-107.95 61.82,-107.85 59.01,-107.7 56.22,-107.51 53.43,-107.26 50.66,-106.97 47.9,-106.64 45.16,-106.25 42.44,-105.82 39.75,-105.35 37.08,-104.84 34.45,-104.29 31.86,-103.69 29.31,-103.06 26.82,-102.39 24.39,-101.69 22.02,-100.96 19.72,-100.2 17.51,-99.41 15.39,-98.59 13.37,-97.75 11.46,-96.89 9.66,-96.01 7.99,-95.11 6.46,-94.2 5.07,-93.28 3.84,-92.35 2.77,-91.41 1.87,-90.47 1.16,-89.53 0.63,-88.59 0.3,-87.65 0.17,-86.72 0.24,-85.8 0.54,-84.89 1.05,-83.99 1.78,-83.11 2.73,-82.25 3.91,-81.41 5.32,-80.59 6.95,-79.8 8.8,-79.04 10.87,-78.31 13.15,-77.61 15.64,-76.94 18.34,-76.31 21.23,-75.71 24.3,-75.16 27.55,-74.65 30.96,-74.18 34.52,-73.75 38.22,-73.36 42.05,-73.03 45.98,-72.74 50.01,-72.49 54.11,-72.3 58.27,-72.15 62.48,-72.05 66.71,-72 70.95,-72 75.19,-72.05"/>
<text text-anchor="middle" x="68.83" y="-86.9" font-family="Times New Roman,serif" font-size="12.00">ge_cpp_application</text>
</g>
<!-- node2&#45;&gt;node3 -->
<g id="edge1" class="edge">
<title>node2&#45;&gt;node3</title>
<path fill="none" stroke="black" stroke-dasharray="1,5" d="M68.83,-71.7C68.83,-64.24 68.83,-55.32 68.83,-46.97"/>
<polygon fill="black" stroke="black" points="72.33,-47.1 68.83,-37.1 65.33,-47.1 72.33,-47.1"/>
</g>
</g>
</svg>
