<?xml version="1.0" encoding="UTF-8" standalone="no"?>
<!DOCTYPE svg PUBLIC "-//W3C//DTD SVG 1.1//EN"
 "http://www.w3.org/Graphics/SVG/1.1/DTD/svg11.dtd">
<!-- Generated by graphviz version 8.0.1 (20230327.1645)
 -->
<!-- Title: glfw Pages: 1 -->
<svg width="153pt" height="116pt"
 viewBox="0.00 0.00 152.57 116.00" xmlns="http://www.w3.org/2000/svg" xmlns:xlink="http://www.w3.org/1999/xlink">
<g id="graph0" class="graph" transform="scale(1 1) rotate(0) translate(4 112)">
<title>glfw</title>
<polygon fill="white" stroke="none" points="-4,4 -4,-112 148.57,-112 148.57,4 -4,4"/>
<!-- node5 -->
<g id="node1" class="node">
<title>node5</title>
<polygon fill="none" stroke="black" points="99.29,-82.54 99.29,-97.46 83.47,-108 61.1,-108 45.29,-97.46 45.29,-82.54 61.1,-72 83.47,-72 99.29,-82.54"/>
<text text-anchor="middle" x="72.29" y="-86.9" font-family="Times New Roman,serif" font-size="12.00">glfw</text>
</g>
<!-- node6 -->
<g id="node2" class="node">
<title>node6</title>
<polygon fill="none" stroke="black" points="144.36,-23.56 72.29,-36 0.21,-23.56 27.74,-3.44 116.83,-3.44 144.36,-23.56"/>
<text text-anchor="middle" x="72.29" y="-14.9" font-family="Times New Roman,serif" font-size="12.00">Threads::Threads</text>
</g>
<!-- node5&#45;&gt;node6 -->
<g id="edge1" class="edge">
<title>node5&#45;&gt;node6</title>
<path fill="none" stroke="black" stroke-dasharray="1,5" d="M72.29,-71.7C72.29,-64.24 72.29,-55.32 72.29,-46.97"/>
<polygon fill="black" stroke="black" points="75.79,-47.1 72.29,-37.1 68.79,-47.1 75.79,-47.1"/>
</g>
</g>
</svg>
