<?xml version="1.0" encoding="UTF-8" standalone="no"?>
<!DOCTYPE svg PUBLIC "-//W3C//DTD SVG 1.1//EN"
 "http://www.w3.org/Graphics/SVG/1.1/DTD/svg11.dtd">
<!-- Generated by graphviz version 8.0.1 (20230327.1645)
 -->
<!-- Title: glfw Pages: 1 -->
<svg width="217pt" height="188pt"
 viewBox="0.00 0.00 216.61 188.00" xmlns="http://www.w3.org/2000/svg" xmlns:xlink="http://www.w3.org/1999/xlink">
<g id="graph0" class="graph" transform="scale(1 1) rotate(0) translate(4 184)">
<title>glfw</title>
<polygon fill="white" stroke="none" points="-4,4 -4,-184 212.61,-184 212.61,4 -4,4"/>
<!-- node5 -->
<g id="node1" class="node">
<title>node5</title>
<polygon fill="none" stroke="black" points="148.83,-10.54 148.83,-25.46 133.02,-36 110.65,-36 94.83,-25.46 94.83,-10.54 110.65,0 133.02,0 148.83,-10.54"/>
<text text-anchor="middle" x="121.83" y="-14.9" font-family="Times New Roman,serif" font-size="12.00">glfw</text>
</g>
<!-- node3 -->
<g id="node2" class="node">
<title>node3</title>
<polygon fill="none" stroke="black" points="125.61,-82.54 125.61,-97.46 92.35,-108 45.32,-108 12.06,-97.46 12.06,-82.54 45.32,-72 92.35,-72 125.61,-82.54"/>
<text text-anchor="middle" x="68.83" y="-86.9" font-family="Times New Roman,serif" font-size="12.00">ge_cpp_engine</text>
</g>
<!-- node3&#45;&gt;node5 -->
<g id="edge1" class="edge">
<title>node3&#45;&gt;node5</title>
<path fill="none" stroke="black" d="M81.94,-71.7C88.19,-63.44 95.79,-53.39 102.68,-44.3"/>
<polygon fill="black" stroke="black" points="106,-46.71 109.25,-36.62 100.42,-42.48 106,-46.71"/>
</g>
<!-- node2 -->
<g id="node3" class="node">
<title>node2</title>
<polygon fill="none" stroke="black" points="75.19,-144.05 79.4,-144.15 83.56,-144.3 87.66,-144.49 91.69,-144.74 95.62,-145.03 99.44,-145.36 103.14,-145.75 106.71,-146.18 110.12,-146.65 113.37,-147.16 116.44,-147.71 119.33,-148.31 122.02,-148.94 124.52,-149.61 126.8,-150.31 128.87,-151.04 130.72,-151.8 132.35,-152.59 133.76,-153.41 134.94,-154.25 135.89,-155.11 136.62,-155.99 137.13,-156.89 137.42,-157.8 137.5,-158.72 137.37,-159.65 137.04,-160.59 136.51,-161.53 135.8,-162.47 134.9,-163.41 133.83,-164.35 132.6,-165.28 131.21,-166.2 129.68,-167.11 128.01,-168.01 126.21,-168.89 124.3,-169.75 122.28,-170.59 120.16,-171.41 117.94,-172.2 115.65,-172.96 113.28,-173.69 110.85,-174.39 108.36,-175.06 105.81,-175.69 103.22,-176.29 100.59,-176.84 97.92,-177.35 95.23,-177.82 92.51,-178.25 89.77,-178.64 87.01,-178.97 84.23,-179.26 81.45,-179.51 78.65,-179.7 75.85,-179.85 73.05,-179.95 70.24,-180 67.43,-180 64.62,-179.95 61.82,-179.85 59.01,-179.7 56.22,-179.51 53.43,-179.26 50.66,-178.97 47.9,-178.64 45.16,-178.25 42.44,-177.82 39.75,-177.35 37.08,-176.84 34.45,-176.29 31.86,-175.69 29.31,-175.06 26.82,-174.39 24.39,-173.69 22.02,-172.96 19.72,-172.2 17.51,-171.41 15.39,-170.59 13.37,-169.75 11.46,-168.89 9.66,-168.01 7.99,-167.11 6.46,-166.2 5.07,-165.28 3.84,-164.35 2.77,-163.41 1.87,-162.47 1.16,-161.53 0.63,-160.59 0.3,-159.65 0.17,-158.72 0.24,-157.8 0.54,-156.89 1.05,-155.99 1.78,-155.11 2.73,-154.25 3.91,-153.41 5.32,-152.59 6.95,-151.8 8.8,-151.04 10.87,-150.31 13.15,-149.61 15.64,-148.94 18.34,-148.31 21.23,-147.71 24.3,-147.16 27.55,-146.65 30.96,-146.18 34.52,-145.75 38.22,-145.36 42.05,-145.03 45.98,-144.74 50.01,-144.49 54.11,-144.3 58.27,-144.15 62.48,-144.05 66.71,-144 70.95,-144 75.19,-144.05"/>
<text text-anchor="middle" x="68.83" y="-158.9" font-family="Times New Roman,serif" font-size="12.00">ge_cpp_application</text>
</g>
<!-- node2&#45;&gt;node3 -->
<g id="edge2" class="edge">
<title>node2&#45;&gt;node3</title>
<path fill="none" stroke="black" stroke-dasharray="1,5" d="M68.83,-143.7C68.83,-136.24 68.83,-127.32 68.83,-118.97"/>
<polygon fill="black" stroke="black" points="72.33,-119.1 68.83,-109.1 65.33,-119.1 72.33,-119.1"/>
</g>
<!-- node14 -->
<g id="node4" class="node">
<title>node14</title>
<polygon fill="none" stroke="black" points="178.85,-72.05 180.84,-72.15 182.82,-72.3 184.76,-72.49 186.67,-72.74 188.53,-73.03 190.35,-73.36 192.1,-73.75 193.79,-74.18 195.41,-74.65 196.95,-75.16 198.41,-75.71 199.78,-76.31 201.05,-76.94 202.24,-77.61 203.32,-78.31 204.3,-79.04 205.18,-79.8 205.95,-80.59 206.62,-81.41 207.17,-82.25 207.63,-83.11 207.97,-83.99 208.22,-84.89 208.35,-85.8 208.39,-86.72 208.33,-87.65 208.17,-88.59 207.92,-89.53 207.58,-90.47 207.16,-91.41 206.65,-92.35 206.07,-93.28 205.41,-94.2 204.68,-95.11 203.89,-96.01 203.04,-96.89 202.13,-97.75 201.17,-98.59 200.17,-99.41 199.12,-100.2 198.03,-100.96 196.91,-101.69 195.75,-102.39 194.57,-103.06 193.37,-103.69 192.14,-104.29 190.89,-104.84 189.63,-105.35 188.35,-105.82 187.06,-106.25 185.76,-106.64 184.45,-106.97 183.14,-107.26 181.81,-107.51 180.49,-107.7 179.16,-107.85 177.83,-107.95 176.5,-108 175.17,-108 173.84,-107.95 172.51,-107.85 171.18,-107.7 169.85,-107.51 168.53,-107.26 167.22,-106.97 165.91,-106.64 164.61,-106.25 163.32,-105.82 162.04,-105.35 160.78,-104.84 159.53,-104.29 158.3,-103.69 157.1,-103.06 155.91,-102.39 154.76,-101.69 153.64,-100.96 152.55,-100.2 151.5,-99.41 150.5,-98.59 149.54,-97.75 148.63,-96.89 147.78,-96.01 146.99,-95.11 146.26,-94.2 145.6,-93.28 145.02,-92.35 144.51,-91.41 144.09,-90.47 143.75,-89.53 143.5,-88.59 143.34,-87.65 143.28,-86.72 143.31,-85.8 143.45,-84.89 143.69,-83.99 144.04,-83.11 144.49,-82.25 145.05,-81.41 145.72,-80.59 146.49,-79.8 147.37,-79.04 148.35,-78.31 149.43,-77.61 150.61,-76.94 151.89,-76.31 153.26,-75.71 154.72,-75.16 156.26,-74.65 157.88,-74.18 159.57,-73.75 161.32,-73.36 163.13,-73.03 165,-72.74 166.91,-72.49 168.85,-72.3 170.83,-72.15 172.82,-72.05 174.83,-72 176.84,-72 178.85,-72.05"/>
<text text-anchor="middle" x="175.83" y="-86.9" font-family="Times New Roman,serif" font-size="12.00">testbed</text>
</g>
<!-- node14&#45;&gt;node5 -->
<g id="edge3" class="edge">
<title>node14&#45;&gt;node5</title>
<path fill="none" stroke="black" stroke-dasharray="1,5" d="M163.31,-72.76C156.63,-64.11 148.27,-53.27 140.81,-43.6"/>
<polygon fill="black" stroke="black" points="143.17,-41.93 134.29,-36.15 137.63,-46.2 143.17,-41.93"/>
</g>
</g>
</svg>
