<?xml version="1.0" encoding="UTF-8" standalone="no"?>
<!DOCTYPE svg PUBLIC "-//W3C//DTD SVG 1.1//EN"
 "http://www.w3.org/Graphics/SVG/1.1/DTD/svg11.dtd">
<!-- Generated by graphviz version 8.0.1 (20230327.1645)
 -->
<!-- Title: glm Pages: 1 -->
<svg width="146pt" height="211pt"
 viewBox="0.00 0.00 145.67 211.43" xmlns="http://www.w3.org/2000/svg" xmlns:xlink="http://www.w3.org/1999/xlink">
<g id="graph0" class="graph" transform="scale(1 1) rotate(0) translate(4 207.43)">
<title>glm</title>
<polygon fill="white" stroke="none" points="-4,4 -4,-207.43 141.67,-207.43 141.67,4 -4,4"/>
<!-- node7 -->
<g id="node1" class="node">
<title>node7</title>
<polygon fill="none" stroke="black" points="121.22,-38.97 68.83,-59.65 16.45,-38.97 36.46,-5.5 101.21,-5.5 121.22,-38.97"/>
<text text-anchor="middle" x="68.83" y="-33.12" font-family="Times New Roman,serif" font-size="12.00">glm</text>
<text text-anchor="middle" x="68.83" y="-20.12" font-family="Times New Roman,serif" font-size="12.00">(glm::glm)</text>
</g>
<!-- node3 -->
<g id="node2" class="node">
<title>node3</title>
<polygon fill="none" stroke="black" points="125.61,-105.98 125.61,-120.89 92.35,-131.43 45.32,-131.43 12.06,-120.89 12.06,-105.98 45.32,-95.43 92.35,-95.43 125.61,-105.98"/>
<text text-anchor="middle" x="68.83" y="-110.33" font-family="Times New Roman,serif" font-size="12.00">ge_cpp_engine</text>
</g>
<!-- node3&#45;&gt;node7 -->
<g id="edge1" class="edge">
<title>node3&#45;&gt;node7</title>
<path fill="none" stroke="black" d="M68.83,-95.1C68.83,-87.92 68.83,-79.27 68.83,-70.67"/>
<polygon fill="black" stroke="black" points="72.33,-70.92 68.83,-60.92 65.33,-70.92 72.33,-70.92"/>
</g>
<!-- node2 -->
<g id="node3" class="node">
<title>node2</title>
<polygon fill="none" stroke="black" points="75.19,-167.48 79.4,-167.58 83.56,-167.73 87.66,-167.93 91.69,-168.17 95.62,-168.46 99.44,-168.8 103.14,-169.18 106.71,-169.61 110.12,-170.08 113.37,-170.59 116.44,-171.15 119.33,-171.74 122.02,-172.37 124.52,-173.04 126.8,-173.74 128.87,-174.47 130.72,-175.24 132.35,-176.03 133.76,-176.84 134.94,-177.68 135.89,-178.54 136.62,-179.42 137.13,-180.32 137.42,-181.23 137.5,-182.15 137.37,-183.08 137.04,-184.02 136.51,-184.96 135.8,-185.91 134.9,-186.85 133.83,-187.78 132.6,-188.72 131.21,-189.64 129.68,-190.55 128.01,-191.44 126.21,-192.32 124.3,-193.19 122.28,-194.03 120.16,-194.84 117.94,-195.63 115.65,-196.4 113.28,-197.13 110.85,-197.83 108.36,-198.5 105.81,-199.13 103.22,-199.72 100.59,-200.27 97.92,-200.79 95.23,-201.26 92.51,-201.69 89.77,-202.07 87.01,-202.41 84.23,-202.7 81.45,-202.94 78.65,-203.14 75.85,-203.29 73.05,-203.38 70.24,-203.43 67.43,-203.43 64.62,-203.38 61.82,-203.29 59.01,-203.14 56.22,-202.94 53.43,-202.7 50.66,-202.41 47.9,-202.07 45.16,-201.69 42.44,-201.26 39.75,-200.79 37.08,-200.27 34.45,-199.72 31.86,-199.13 29.31,-198.5 26.82,-197.83 24.39,-197.13 22.02,-196.4 19.72,-195.63 17.51,-194.84 15.39,-194.03 13.37,-193.19 11.46,-192.32 9.66,-191.44 7.99,-190.55 6.46,-189.64 5.07,-188.72 3.84,-187.78 2.77,-186.85 1.87,-185.91 1.16,-184.96 0.63,-184.02 0.3,-183.08 0.17,-182.15 0.24,-181.23 0.54,-180.32 1.05,-179.42 1.78,-178.54 2.73,-177.68 3.91,-176.84 5.32,-176.03 6.95,-175.24 8.8,-174.47 10.87,-173.74 13.15,-173.04 15.64,-172.37 18.34,-171.74 21.23,-171.15 24.3,-170.59 27.55,-170.08 30.96,-169.61 34.52,-169.18 38.22,-168.8 42.05,-168.46 45.98,-168.17 50.01,-167.93 54.11,-167.73 58.27,-167.58 62.48,-167.48 66.71,-167.43 70.95,-167.43 75.19,-167.48"/>
<text text-anchor="middle" x="68.83" y="-182.33" font-family="Times New Roman,serif" font-size="12.00">ge_cpp_application</text>
</g>
<!-- node2&#45;&gt;node3 -->
<g id="edge2" class="edge">
<title>node2&#45;&gt;node3</title>
<path fill="none" stroke="black" stroke-dasharray="1,5" d="M68.83,-167.13C68.83,-159.67 68.83,-150.76 68.83,-142.4"/>
<polygon fill="black" stroke="black" points="72.33,-142.54 68.83,-132.54 65.33,-142.54 72.33,-142.54"/>
</g>
</g>
</svg>
