<?xml version="1.0" encoding="UTF-8" standalone="no"?>
<!DOCTYPE svg PUBLIC "-//W3C//DTD SVG 1.1//EN"
 "http://www.w3.org/Graphics/SVG/1.1/DTD/svg11.dtd">
<!-- Generated by graphviz version 8.0.1 (20230327.1645)
 -->
<!-- Title: glu32 Pages: 1 -->
<svg width="146pt" height="188pt"
 viewBox="0.00 0.00 145.67 188.00" xmlns="http://www.w3.org/2000/svg" xmlns:xlink="http://www.w3.org/1999/xlink">
<g id="graph0" class="graph" transform="scale(1 1) rotate(0) translate(4 184)">
<title>glu32</title>
<polygon fill="white" stroke="none" points="-4,4 -4,-184 141.67,-184 141.67,4 -4,4"/>
<!-- node8 -->
<g id="node1" class="node">
<title>node8</title>
<polygon fill="none" stroke="black" points="96.86,-13.99 91.31,-29.22 68.83,-36 46.36,-29.22 40.81,-13.99 56.36,-1.78 81.31,-1.78 96.86,-13.99"/>
<text text-anchor="middle" x="68.83" y="-14.9" font-family="Times New Roman,serif" font-size="12.00">glu32</text>
</g>
<!-- node3 -->
<g id="node2" class="node">
<title>node3</title>
<polygon fill="none" stroke="black" points="125.61,-82.54 125.61,-97.46 92.35,-108 45.32,-108 12.06,-97.46 12.06,-82.54 45.32,-72 92.35,-72 125.61,-82.54"/>
<text text-anchor="middle" x="68.83" y="-86.9" font-family="Times New Roman,serif" font-size="12.00">ge_cpp_engine</text>
</g>
<!-- node3&#45;&gt;node8 -->
<g id="edge1" class="edge">
<title>node3&#45;&gt;node8</title>
<path fill="none" stroke="black" d="M68.83,-71.7C68.83,-64.24 68.83,-55.32 68.83,-46.97"/>
<polygon fill="black" stroke="black" points="72.33,-47.1 68.83,-37.1 65.33,-47.1 72.33,-47.1"/>
</g>
<!-- node2 -->
<g id="node3" class="node">
<title>node2</title>
<polygon fill="none" stroke="black" points="75.19,-144.05 79.4,-144.15 83.56,-144.3 87.66,-144.49 91.69,-144.74 95.62,-145.03 99.44,-145.36 103.14,-145.75 106.71,-146.18 110.12,-146.65 113.37,-147.16 116.44,-147.71 119.33,-148.31 122.02,-148.94 124.52,-149.61 126.8,-150.31 128.87,-151.04 130.72,-151.8 132.35,-152.59 133.76,-153.41 134.94,-154.25 135.89,-155.11 136.62,-155.99 137.13,-156.89 137.42,-157.8 137.5,-158.72 137.37,-159.65 137.04,-160.59 136.51,-161.53 135.8,-162.47 134.9,-163.41 133.83,-164.35 132.6,-165.28 131.21,-166.2 129.68,-167.11 128.01,-168.01 126.21,-168.89 124.3,-169.75 122.28,-170.59 120.16,-171.41 117.94,-172.2 115.65,-172.96 113.28,-173.69 110.85,-174.39 108.36,-175.06 105.81,-175.69 103.22,-176.29 100.59,-176.84 97.92,-177.35 95.23,-177.82 92.51,-178.25 89.77,-178.64 87.01,-178.97 84.23,-179.26 81.45,-179.51 78.65,-179.7 75.85,-179.85 73.05,-179.95 70.24,-180 67.43,-180 64.62,-179.95 61.82,-179.85 59.01,-179.7 56.22,-179.51 53.43,-179.26 50.66,-178.97 47.9,-178.64 45.16,-178.25 42.44,-177.82 39.75,-177.35 37.08,-176.84 34.45,-176.29 31.86,-175.69 29.31,-175.06 26.82,-174.39 24.39,-173.69 22.02,-172.96 19.72,-172.2 17.51,-171.41 15.39,-170.59 13.37,-169.75 11.46,-168.89 9.66,-168.01 7.99,-167.11 6.46,-166.2 5.07,-165.28 3.84,-164.35 2.77,-163.41 1.87,-162.47 1.16,-161.53 0.63,-160.59 0.3,-159.65 0.17,-158.72 0.24,-157.8 0.54,-156.89 1.05,-155.99 1.78,-155.11 2.73,-154.25 3.91,-153.41 5.32,-152.59 6.95,-151.8 8.8,-151.04 10.87,-150.31 13.15,-149.61 15.64,-148.94 18.34,-148.31 21.23,-147.71 24.3,-147.16 27.55,-146.65 30.96,-146.18 34.52,-145.75 38.22,-145.36 42.05,-145.03 45.98,-144.74 50.01,-144.49 54.11,-144.3 58.27,-144.15 62.48,-144.05 66.71,-144 70.95,-144 75.19,-144.05"/>
<text text-anchor="middle" x="68.83" y="-158.9" font-family="Times New Roman,serif" font-size="12.00">ge_cpp_application</text>
</g>
<!-- node2&#45;&gt;node3 -->
<g id="edge2" class="edge">
<title>node2&#45;&gt;node3</title>
<path fill="none" stroke="black" stroke-dasharray="1,5" d="M68.83,-143.7C68.83,-136.24 68.83,-127.32 68.83,-118.97"/>
<polygon fill="black" stroke="black" points="72.33,-119.1 68.83,-109.1 65.33,-119.1 72.33,-119.1"/>
</g>
</g>
</svg>
