<?xml version="1.0" encoding="UTF-8" standalone="no"?>
<!DOCTYPE svg PUBLIC "-//W3C//DTD SVG 1.1//EN"
 "http://www.w3.org/Graphics/SVG/1.1/DTD/svg11.dtd">
<!-- Generated by graphviz version 8.0.1 (20230327.1645)
 -->
<!-- Title: imgui Pages: 1 -->
<svg width="74pt" height="116pt"
 viewBox="0.00 0.00 73.56 116.00" xmlns="http://www.w3.org/2000/svg" xmlns:xlink="http://www.w3.org/1999/xlink">
<g id="graph0" class="graph" transform="scale(1 1) rotate(0) translate(4 112)">
<title>imgui</title>
<polygon fill="white" stroke="none" points="-4,4 -4,-112 69.56,-112 69.56,4 -4,4"/>
<!-- node11 -->
<g id="node1" class="node">
<title>node11</title>
<polygon fill="none" stroke="black" points="59.78,-10.54 59.78,-25.46 43.96,-36 21.59,-36 5.78,-25.46 5.78,-10.54 21.59,0 43.96,0 59.78,-10.54"/>
<text text-anchor="middle" x="32.78" y="-14.9" font-family="Times New Roman,serif" font-size="12.00">imgui</text>
</g>
<!-- node14 -->
<g id="node2" class="node">
<title>node14</title>
<polygon fill="none" stroke="black" points="35.79,-72.05 37.79,-72.15 39.76,-72.3 41.7,-72.49 43.61,-72.74 45.48,-73.03 47.29,-73.36 49.05,-73.75 50.73,-74.18 52.35,-74.65 53.89,-75.16 55.35,-75.71 56.72,-76.31 58,-76.94 59.18,-77.61 60.26,-78.31 61.24,-79.04 62.12,-79.8 62.89,-80.59 63.56,-81.41 64.12,-82.25 64.57,-83.11 64.92,-83.99 65.16,-84.89 65.3,-85.8 65.34,-86.72 65.27,-87.65 65.12,-88.59 64.87,-89.53 64.53,-90.47 64.1,-91.41 63.59,-92.35 63.01,-93.28 62.35,-94.2 61.63,-95.11 60.83,-96.01 59.98,-96.89 59.08,-97.75 58.12,-98.59 57.11,-99.41 56.06,-100.2 54.98,-100.96 53.85,-101.69 52.7,-102.39 51.52,-103.06 50.31,-103.69 49.08,-104.29 47.83,-104.84 46.57,-105.35 45.29,-105.82 44,-106.25 42.7,-106.64 41.39,-106.97 40.08,-107.26 38.76,-107.51 37.43,-107.7 36.11,-107.85 34.78,-107.95 33.44,-108 32.11,-108 30.78,-107.95 29.45,-107.85 28.12,-107.7 26.8,-107.51 25.48,-107.26 24.16,-106.97 22.85,-106.64 21.55,-106.25 20.26,-105.82 18.99,-105.35 17.72,-104.84 16.48,-104.29 15.25,-103.69 14.04,-103.06 12.86,-102.39 11.7,-101.69 10.58,-100.96 9.49,-100.2 8.45,-99.41 7.44,-98.59 6.48,-97.75 5.57,-96.89 4.72,-96.01 3.93,-95.11 3.2,-94.2 2.55,-93.28 1.96,-92.35 1.45,-91.41 1.03,-90.47 0.69,-89.53 0.44,-88.59 0.28,-87.65 0.22,-86.72 0.26,-85.8 0.4,-84.89 0.64,-83.99 0.98,-83.11 1.44,-82.25 2,-81.41 2.66,-80.59 3.43,-79.8 4.31,-79.04 5.29,-78.31 6.38,-77.61 7.56,-76.94 8.84,-76.31 10.21,-75.71 11.66,-75.16 13.2,-74.65 14.82,-74.18 16.51,-73.75 18.26,-73.36 20.08,-73.03 21.94,-72.74 23.85,-72.49 25.8,-72.3 27.77,-72.15 29.77,-72.05 31.77,-72 33.78,-72 35.79,-72.05"/>
<text text-anchor="middle" x="32.78" y="-86.9" font-family="Times New Roman,serif" font-size="12.00">testbed</text>
</g>
<!-- node14&#45;&gt;node11 -->
<g id="edge1" class="edge">
<title>node14&#45;&gt;node11</title>
<path fill="none" stroke="black" stroke-dasharray="1,5" d="M32.78,-71.7C32.78,-64.24 32.78,-55.32 32.78,-46.97"/>
<polygon fill="black" stroke="black" points="36.28,-47.1 32.78,-37.1 29.28,-47.1 36.28,-47.1"/>
</g>
</g>
</svg>
