<?xml version="1.0" encoding="UTF-8" standalone="no"?>
<!DOCTYPE svg PUBLIC "-//W3C//DTD SVG 1.1//EN"
 "http://www.w3.org/Graphics/SVG/1.1/DTD/svg11.dtd">
<!-- Generated by graphviz version 8.0.1 (20230327.1645)
 -->
<!-- Title: spdlog_header_only Pages: 1 -->
<svg width="270pt" height="139pt"
 viewBox="0.00 0.00 270.21 139.43" xmlns="http://www.w3.org/2000/svg" xmlns:xlink="http://www.w3.org/1999/xlink">
<g id="graph0" class="graph" transform="scale(1 1) rotate(0) translate(4 135.43)">
<title>spdlog_header_only</title>
<polygon fill="white" stroke="none" points="-4,4 -4,-135.43 266.21,-135.43 266.21,4 -4,4"/>
<!-- node13 -->
<g id="node1" class="node">
<title>node13</title>
<polygon fill="none" stroke="black" points="262.31,-110.97 131.1,-131.65 -0.1,-110.97 50.01,-77.5 212.2,-77.5 262.31,-110.97"/>
<text text-anchor="middle" x="131.1" y="-105.12" font-family="Times New Roman,serif" font-size="12.00">spdlog_header_only</text>
<text text-anchor="middle" x="131.1" y="-92.12" font-family="Times New Roman,serif" font-size="12.00">(spdlog::spdlog_header_only)</text>
</g>
<!-- node6 -->
<g id="node2" class="node">
<title>node6</title>
<polygon fill="none" stroke="black" points="203.18,-23.56 131.1,-36 59.03,-23.56 86.56,-3.44 175.65,-3.44 203.18,-23.56"/>
<text text-anchor="middle" x="131.1" y="-14.9" font-family="Times New Roman,serif" font-size="12.00">Threads::Threads</text>
</g>
<!-- node13&#45;&gt;node6 -->
<g id="edge1" class="edge">
<title>node13&#45;&gt;node6</title>
<path fill="none" stroke="black" stroke-dasharray="5,2" d="M131.1,-77.08C131.1,-67.73 131.1,-56.91 131.1,-47.15"/>
<polygon fill="black" stroke="black" points="134.6,-47.35 131.1,-37.35 127.6,-47.35 134.6,-47.35"/>
</g>
</g>
</svg>
