<?xml version="1.0" encoding="UTF-8" standalone="no"?>
<!DOCTYPE svg PUBLIC "-//W3C//DTD SVG 1.1//EN"
 "http://www.w3.org/Graphics/SVG/1.1/DTD/svg11.dtd">
<!-- Generated by graphviz version 8.0.1 (20230327.1645)
 -->
<!-- Title: spdlog Pages: 1 -->
<svg width="146pt" height="204pt"
 viewBox="0.00 0.00 145.67 204.04" xmlns="http://www.w3.org/2000/svg" xmlns:xlink="http://www.w3.org/1999/xlink">
<g id="graph0" class="graph" transform="scale(1 1) rotate(0) translate(4 200.04)">
<title>spdlog</title>
<polygon fill="white" stroke="none" points="-4,4 -4,-200.04 141.67,-200.04 141.67,4 -4,4"/>
<!-- node10 -->
<g id="node1" class="node">
<title>node10</title>
<polygon fill="none" stroke="black" points="137.07,-15.23 137.07,-36.81 97.1,-52.07 40.57,-52.07 0.6,-36.81 0.6,-15.23 40.57,0.02 97.1,0.02 137.07,-15.23"/>
<text text-anchor="middle" x="68.83" y="-29.42" font-family="Times New Roman,serif" font-size="12.00">spdlog</text>
<text text-anchor="middle" x="68.83" y="-16.42" font-family="Times New Roman,serif" font-size="12.00">(spdlog::spdlog)</text>
</g>
<!-- node3 -->
<g id="node2" class="node">
<title>node3</title>
<polygon fill="none" stroke="black" points="125.61,-98.59 125.61,-113.5 92.35,-124.04 45.32,-124.04 12.06,-113.5 12.06,-98.59 45.32,-88.04 92.35,-88.04 125.61,-98.59"/>
<text text-anchor="middle" x="68.83" y="-102.94" font-family="Times New Roman,serif" font-size="12.00">ge_cpp_engine</text>
</g>
<!-- node3&#45;&gt;node10 -->
<g id="edge1" class="edge">
<title>node3&#45;&gt;node10</title>
<path fill="none" stroke="black" d="M68.83,-87.73C68.83,-80.49 68.83,-71.78 68.83,-63.26"/>
<polygon fill="black" stroke="black" points="72.33,-63.29 68.83,-53.29 65.33,-63.29 72.33,-63.29"/>
</g>
<!-- node2 -->
<g id="node3" class="node">
<title>node2</title>
<polygon fill="none" stroke="black" points="75.19,-160.09 79.4,-160.19 83.56,-160.34 87.66,-160.54 91.69,-160.78 95.62,-161.07 99.44,-161.41 103.14,-161.79 106.71,-162.22 110.12,-162.69 113.37,-163.21 116.44,-163.76 119.33,-164.35 122.02,-164.98 124.52,-165.65 126.8,-166.35 128.87,-167.08 130.72,-167.85 132.35,-168.64 133.76,-169.45 134.94,-170.29 135.89,-171.15 136.62,-172.03 137.13,-172.93 137.42,-173.84 137.5,-174.76 137.37,-175.69 137.04,-176.63 136.51,-177.57 135.8,-178.52 134.9,-179.46 133.83,-180.4 132.6,-181.33 131.21,-182.25 129.68,-183.16 128.01,-184.06 126.21,-184.94 124.3,-185.8 122.28,-186.64 120.16,-187.45 117.94,-188.24 115.65,-189.01 113.28,-189.74 110.85,-190.44 108.36,-191.11 105.81,-191.74 103.22,-192.33 100.59,-192.88 97.92,-193.4 95.23,-193.87 92.51,-194.3 89.77,-194.68 87.01,-195.02 84.23,-195.31 81.45,-195.55 78.65,-195.75 75.85,-195.9 73.05,-196 70.24,-196.04 67.43,-196.04 64.62,-196 61.82,-195.9 59.01,-195.75 56.22,-195.55 53.43,-195.31 50.66,-195.02 47.9,-194.68 45.16,-194.3 42.44,-193.87 39.75,-193.4 37.08,-192.88 34.45,-192.33 31.86,-191.74 29.31,-191.11 26.82,-190.44 24.39,-189.74 22.02,-189.01 19.72,-188.24 17.51,-187.45 15.39,-186.64 13.37,-185.8 11.46,-184.94 9.66,-184.06 7.99,-183.16 6.46,-182.25 5.07,-181.33 3.84,-180.4 2.77,-179.46 1.87,-178.52 1.16,-177.57 0.63,-176.63 0.3,-175.69 0.17,-174.76 0.24,-173.84 0.54,-172.93 1.05,-172.03 1.78,-171.15 2.73,-170.29 3.91,-169.45 5.32,-168.64 6.95,-167.85 8.8,-167.08 10.87,-166.35 13.15,-165.65 15.64,-164.98 18.34,-164.35 21.23,-163.76 24.3,-163.21 27.55,-162.69 30.96,-162.22 34.52,-161.79 38.22,-161.41 42.05,-161.07 45.98,-160.78 50.01,-160.54 54.11,-160.34 58.27,-160.19 62.48,-160.09 66.71,-160.04 70.95,-160.04 75.19,-160.09"/>
<text text-anchor="middle" x="68.83" y="-174.94" font-family="Times New Roman,serif" font-size="12.00">ge_cpp_application</text>
</g>
<!-- node2&#45;&gt;node3 -->
<g id="edge2" class="edge">
<title>node2&#45;&gt;node3</title>
<path fill="none" stroke="black" stroke-dasharray="1,5" d="M68.83,-159.74C68.83,-152.28 68.83,-143.37 68.83,-135.01"/>
<polygon fill="black" stroke="black" points="72.33,-135.15 68.83,-125.15 65.33,-135.15 72.33,-135.15"/>
</g>
</g>
</svg>
