<?xml version="1.0" encoding="UTF-8" standalone="no"?>
<!DOCTYPE svg PUBLIC "-//W3C//DTD SVG 1.1//EN"
 "http://www.w3.org/Graphics/SVG/1.1/DTD/svg11.dtd">
<!-- Generated by graphviz version 8.0.1 (20230327.1645)
 -->
<!-- Title: spdlog Pages: 1 -->
<svg width="153pt" height="132pt"
 viewBox="0.00 0.00 152.57 132.04" xmlns="http://www.w3.org/2000/svg" xmlns:xlink="http://www.w3.org/1999/xlink">
<g id="graph0" class="graph" transform="scale(1 1) rotate(0) translate(4 128.04)">
<title>spdlog</title>
<polygon fill="white" stroke="none" points="-4,4 -4,-128.04 148.57,-128.04 148.57,4 -4,4"/>
<!-- node10 -->
<g id="node1" class="node">
<title>node10</title>
<polygon fill="none" stroke="black" points="140.52,-87.23 140.52,-108.81 100.55,-124.07 44.02,-124.07 4.05,-108.81 4.05,-87.23 44.02,-71.98 100.55,-71.98 140.52,-87.23"/>
<text text-anchor="middle" x="72.29" y="-101.42" font-family="Times New Roman,serif" font-size="12.00">spdlog</text>
<text text-anchor="middle" x="72.29" y="-88.42" font-family="Times New Roman,serif" font-size="12.00">(spdlog::spdlog)</text>
</g>
<!-- node6 -->
<g id="node2" class="node">
<title>node6</title>
<polygon fill="none" stroke="black" points="144.36,-23.56 72.29,-36 0.21,-23.56 27.74,-3.44 116.83,-3.44 144.36,-23.56"/>
<text text-anchor="middle" x="72.29" y="-14.9" font-family="Times New Roman,serif" font-size="12.00">Threads::Threads</text>
</g>
<!-- node10&#45;&gt;node6 -->
<g id="edge1" class="edge">
<title>node10&#45;&gt;node6</title>
<path fill="none" stroke="black" d="M72.29,-71.91C72.29,-64.03 72.29,-55.29 72.29,-47.22"/>
<polygon fill="black" stroke="black" points="75.79,-47.42 72.29,-37.42 68.79,-47.42 75.79,-47.42"/>
</g>
</g>
</svg>
