<?xml version="1.0" encoding="UTF-8" standalone="no"?>
<!DOCTYPE svg PUBLIC "-//W3C//DTD SVG 1.1//EN"
 "http://www.w3.org/Graphics/SVG/1.1/DTD/svg11.dtd">
<!-- Generated by graphviz version 8.0.1 (20230327.1645)
 -->
<!-- Title: testbed Pages: 1 -->
<svg width="364pt" height="188pt"
 viewBox="0.00 0.00 363.63 188.00" xmlns="http://www.w3.org/2000/svg" xmlns:xlink="http://www.w3.org/1999/xlink">
<g id="graph0" class="graph" transform="scale(1 1) rotate(0) translate(4 184)">
<title>testbed</title>
<polygon fill="white" stroke="none" points="-4,4 -4,-184 359.63,-184 359.63,4 -4,4"/>
<!-- node14 -->
<g id="node1" class="node">
<title>node14</title>
<polygon fill="none" stroke="black" points="181.66,-144.05 183.66,-144.15 185.63,-144.3 187.58,-144.49 189.49,-144.74 191.35,-145.03 193.16,-145.36 194.92,-145.75 196.61,-146.18 198.22,-146.65 199.76,-147.16 201.22,-147.71 202.59,-148.31 203.87,-148.94 205.05,-149.61 206.13,-150.31 207.12,-151.04 207.99,-151.8 208.77,-152.59 209.43,-153.41 209.99,-154.25 210.44,-155.11 210.79,-155.99 211.03,-156.89 211.17,-157.8 211.21,-158.72 211.15,-159.65 210.99,-160.59 210.74,-161.53 210.4,-162.47 209.97,-163.41 209.47,-164.35 208.88,-165.28 208.22,-166.2 207.5,-167.11 206.71,-168.01 205.85,-168.89 204.95,-169.75 203.99,-170.59 202.98,-171.41 201.93,-172.2 200.85,-172.96 199.72,-173.69 198.57,-174.39 197.39,-175.06 196.18,-175.69 194.95,-176.29 193.71,-176.84 192.44,-177.35 191.16,-177.82 189.87,-178.25 188.57,-178.64 187.27,-178.97 185.95,-179.26 184.63,-179.51 183.31,-179.7 181.98,-179.85 180.65,-179.95 179.32,-180 177.98,-180 176.65,-179.95 175.32,-179.85 173.99,-179.7 172.67,-179.51 171.35,-179.26 170.03,-178.97 168.73,-178.64 167.43,-178.25 166.14,-177.82 164.86,-177.35 163.59,-176.84 162.35,-176.29 161.12,-175.69 159.91,-175.06 158.73,-174.39 157.58,-173.69 156.45,-172.96 155.37,-172.2 154.32,-171.41 153.31,-170.59 152.35,-169.75 151.45,-168.89 150.59,-168.01 149.8,-167.11 149.08,-166.2 148.42,-165.28 147.83,-164.35 147.33,-163.41 146.9,-162.47 146.56,-161.53 146.31,-160.59 146.15,-159.65 146.09,-158.72 146.13,-157.8 146.27,-156.89 146.51,-155.99 146.86,-155.11 147.31,-154.25 147.87,-153.41 148.53,-152.59 149.31,-151.8 150.18,-151.04 151.17,-150.31 152.25,-149.61 153.43,-148.94 154.71,-148.31 156.08,-147.71 157.54,-147.16 159.08,-146.65 160.69,-146.18 162.38,-145.75 164.14,-145.36 165.95,-145.03 167.81,-144.74 169.72,-144.49 171.67,-144.3 173.64,-144.15 175.64,-144.05 177.64,-144 179.66,-144 181.66,-144.05"/>
<text text-anchor="middle" x="178.65" y="-158.9" font-family="Times New Roman,serif" font-size="12.00">testbed</text>
</g>
<!-- node1 -->
<g id="node2" class="node">
<title>node1</title>
<polygon fill="none" stroke="black" points="61.45,-82.54 61.45,-97.46 43.41,-108 17.89,-108 -0.15,-97.46 -0.15,-82.54 17.89,-72 43.41,-72 61.45,-82.54"/>
<text text-anchor="middle" x="30.65" y="-86.9" font-family="Times New Roman,serif" font-size="12.00">box2d</text>
</g>
<!-- node14&#45;&gt;node1 -->
<g id="edge1" class="edge">
<title>node14&#45;&gt;node1</title>
<path fill="none" stroke="black" stroke-dasharray="1,5" d="M152.87,-148.81C128.2,-137.14 90.85,-119.47 63.94,-106.74"/>
<polygon fill="black" stroke="black" points="65.72,-103.24 55.18,-102.13 62.73,-109.57 65.72,-103.24"/>
</g>
<!-- node4 -->
<g id="node3" class="node">
<title>node4</title>
<polygon fill="none" stroke="black" points="133.65,-82.54 133.65,-97.46 117.83,-108 95.47,-108 79.65,-97.46 79.65,-82.54 95.47,-72 117.83,-72 133.65,-82.54"/>
<text text-anchor="middle" x="106.65" y="-86.9" font-family="Times New Roman,serif" font-size="12.00">glad</text>
</g>
<!-- node14&#45;&gt;node4 -->
<g id="edge2" class="edge">
<title>node14&#45;&gt;node4</title>
<path fill="none" stroke="black" stroke-dasharray="1,5" d="M162.67,-145.46C152.9,-135.96 140.24,-123.66 129.43,-113.15"/>
<polygon fill="black" stroke="black" points="132.21,-111 122.6,-106.54 127.33,-116.02 132.21,-111"/>
</g>
<!-- node5 -->
<g id="node4" class="node">
<title>node5</title>
<polygon fill="none" stroke="black" points="205.65,-82.54 205.65,-97.46 189.83,-108 167.47,-108 151.65,-97.46 151.65,-82.54 167.47,-72 189.83,-72 205.65,-82.54"/>
<text text-anchor="middle" x="178.65" y="-86.9" font-family="Times New Roman,serif" font-size="12.00">glfw</text>
</g>
<!-- node14&#45;&gt;node5 -->
<g id="edge3" class="edge">
<title>node14&#45;&gt;node5</title>
<path fill="none" stroke="black" stroke-dasharray="1,5" d="M178.65,-143.7C178.65,-136.24 178.65,-127.32 178.65,-118.97"/>
<polygon fill="black" stroke="black" points="182.15,-119.1 178.65,-109.1 175.15,-119.1 182.15,-119.1"/>
</g>
<!-- node11 -->
<g id="node6" class="node">
<title>node11</title>
<polygon fill="none" stroke="black" points="277.65,-82.54 277.65,-97.46 261.83,-108 239.47,-108 223.65,-97.46 223.65,-82.54 239.47,-72 261.83,-72 277.65,-82.54"/>
<text text-anchor="middle" x="250.65" y="-86.9" font-family="Times New Roman,serif" font-size="12.00">imgui</text>
</g>
<!-- node14&#45;&gt;node11 -->
<g id="edge5" class="edge">
<title>node14&#45;&gt;node11</title>
<path fill="none" stroke="black" stroke-dasharray="1,5" d="M194.63,-145.46C204.4,-135.96 217.06,-123.66 227.87,-113.15"/>
<polygon fill="black" stroke="black" points="229.97,-116.02 234.7,-106.54 225.09,-111 229.97,-116.02"/>
</g>
<!-- node12 -->
<g id="node7" class="node">
<title>node12</title>
<polygon fill="none" stroke="black" points="355.62,-82.54 355.62,-97.46 338.06,-108 313.24,-108 295.68,-97.46 295.68,-82.54 313.24,-72 338.06,-72 355.62,-82.54"/>
<text text-anchor="middle" x="325.65" y="-86.9" font-family="Times New Roman,serif" font-size="12.00">sajson</text>
</g>
<!-- node14&#45;&gt;node12 -->
<g id="edge6" class="edge">
<title>node14&#45;&gt;node12</title>
<path fill="none" stroke="black" stroke-dasharray="1,5" d="M204.26,-148.81C228.91,-137.07 266.3,-119.26 293.06,-106.52"/>
<polygon fill="black" stroke="black" points="294.23,-109.36 301.75,-101.9 291.22,-103.04 294.23,-109.36"/>
</g>
<!-- node6 -->
<g id="node5" class="node">
<title>node6</title>
<polygon fill="none" stroke="black" points="250.72,-23.56 178.65,-36 106.58,-23.56 134.11,-3.44 223.19,-3.44 250.72,-23.56"/>
<text text-anchor="middle" x="178.65" y="-14.9" font-family="Times New Roman,serif" font-size="12.00">Threads::Threads</text>
</g>
<!-- node5&#45;&gt;node6 -->
<g id="edge4" class="edge">
<title>node5&#45;&gt;node6</title>
<path fill="none" stroke="black" stroke-dasharray="1,5" d="M178.65,-71.7C178.65,-64.24 178.65,-55.32 178.65,-46.97"/>
<polygon fill="black" stroke="black" points="182.15,-47.1 178.65,-37.1 175.15,-47.1 182.15,-47.1"/>
</g>
</g>
</svg>
