<?xml version="1.0" encoding="UTF-8" standalone="no"?>
<!DOCTYPE svg PUBLIC "-//W3C//DTD SVG 1.1//EN"
 "http://www.w3.org/Graphics/SVG/1.1/DTD/svg11.dtd">
<!-- Generated by graphviz version 8.0.1 (20230327.1645)
 -->
<!-- Title: Threads::Threads Pages: 1 -->
<svg width="217pt" height="260pt"
 viewBox="0.00 0.00 216.61 260.00" xmlns="http://www.w3.org/2000/svg" xmlns:xlink="http://www.w3.org/1999/xlink">
<g id="graph0" class="graph" transform="scale(1 1) rotate(0) translate(4 256)">
<title>Threads::Threads</title>
<polygon fill="white" stroke="none" points="-4,4 -4,-256 212.61,-256 212.61,4 -4,4"/>
<!-- node6 -->
<g id="node1" class="node">
<title>node6</title>
<polygon fill="none" stroke="black" points="193.91,-23.56 121.83,-36 49.76,-23.56 77.29,-3.44 166.38,-3.44 193.91,-23.56"/>
<text text-anchor="middle" x="121.83" y="-14.9" font-family="Times New Roman,serif" font-size="12.00">Threads::Threads</text>
</g>
<!-- node5 -->
<g id="node2" class="node">
<title>node5</title>
<polygon fill="none" stroke="black" points="148.83,-82.54 148.83,-97.46 133.02,-108 110.65,-108 94.83,-97.46 94.83,-82.54 110.65,-72 133.02,-72 148.83,-82.54"/>
<text text-anchor="middle" x="121.83" y="-86.9" font-family="Times New Roman,serif" font-size="12.00">glfw</text>
</g>
<!-- node5&#45;&gt;node6 -->
<g id="edge1" class="edge">
<title>node5&#45;&gt;node6</title>
<path fill="none" stroke="black" stroke-dasharray="1,5" d="M121.83,-71.7C121.83,-64.24 121.83,-55.32 121.83,-46.97"/>
<polygon fill="black" stroke="black" points="125.33,-47.1 121.83,-37.1 118.33,-47.1 125.33,-47.1"/>
</g>
<!-- node3 -->
<g id="node3" class="node">
<title>node3</title>
<polygon fill="none" stroke="black" points="125.61,-154.54 125.61,-169.46 92.35,-180 45.32,-180 12.06,-169.46 12.06,-154.54 45.32,-144 92.35,-144 125.61,-154.54"/>
<text text-anchor="middle" x="68.83" y="-158.9" font-family="Times New Roman,serif" font-size="12.00">ge_cpp_engine</text>
</g>
<!-- node3&#45;&gt;node5 -->
<g id="edge2" class="edge">
<title>node3&#45;&gt;node5</title>
<path fill="none" stroke="black" d="M81.94,-143.7C88.19,-135.44 95.79,-125.39 102.68,-116.3"/>
<polygon fill="black" stroke="black" points="106,-118.71 109.25,-108.62 100.42,-114.48 106,-118.71"/>
</g>
<!-- node2 -->
<g id="node4" class="node">
<title>node2</title>
<polygon fill="none" stroke="black" points="75.19,-216.05 79.4,-216.15 83.56,-216.3 87.66,-216.49 91.69,-216.74 95.62,-217.03 99.44,-217.36 103.14,-217.75 106.71,-218.18 110.12,-218.65 113.37,-219.16 116.44,-219.71 119.33,-220.31 122.02,-220.94 124.52,-221.61 126.8,-222.31 128.87,-223.04 130.72,-223.8 132.35,-224.59 133.76,-225.41 134.94,-226.25 135.89,-227.11 136.62,-227.99 137.13,-228.89 137.42,-229.8 137.5,-230.72 137.37,-231.65 137.04,-232.59 136.51,-233.53 135.8,-234.47 134.9,-235.41 133.83,-236.35 132.6,-237.28 131.21,-238.2 129.68,-239.11 128.01,-240.01 126.21,-240.89 124.3,-241.75 122.28,-242.59 120.16,-243.41 117.94,-244.2 115.65,-244.96 113.28,-245.69 110.85,-246.39 108.36,-247.06 105.81,-247.69 103.22,-248.29 100.59,-248.84 97.92,-249.35 95.23,-249.82 92.51,-250.25 89.77,-250.64 87.01,-250.97 84.23,-251.26 81.45,-251.51 78.65,-251.7 75.85,-251.85 73.05,-251.95 70.24,-252 67.43,-252 64.62,-251.95 61.82,-251.85 59.01,-251.7 56.22,-251.51 53.43,-251.26 50.66,-250.97 47.9,-250.64 45.16,-250.25 42.44,-249.82 39.75,-249.35 37.08,-248.84 34.45,-248.29 31.86,-247.69 29.31,-247.06 26.82,-246.39 24.39,-245.69 22.02,-244.96 19.72,-244.2 17.51,-243.41 15.39,-242.59 13.37,-241.75 11.46,-240.89 9.66,-240.01 7.99,-239.11 6.46,-238.2 5.07,-237.28 3.84,-236.35 2.77,-235.41 1.87,-234.47 1.16,-233.53 0.63,-232.59 0.3,-231.65 0.17,-230.72 0.24,-229.8 0.54,-228.89 1.05,-227.99 1.78,-227.11 2.73,-226.25 3.91,-225.41 5.32,-224.59 6.95,-223.8 8.8,-223.04 10.87,-222.31 13.15,-221.61 15.64,-220.94 18.34,-220.31 21.23,-219.71 24.3,-219.16 27.55,-218.65 30.96,-218.18 34.52,-217.75 38.22,-217.36 42.05,-217.03 45.98,-216.74 50.01,-216.49 54.11,-216.3 58.27,-216.15 62.48,-216.05 66.71,-216 70.95,-216 75.19,-216.05"/>
<text text-anchor="middle" x="68.83" y="-230.9" font-family="Times New Roman,serif" font-size="12.00">ge_cpp_application</text>
</g>
<!-- node2&#45;&gt;node3 -->
<g id="edge3" class="edge">
<title>node2&#45;&gt;node3</title>
<path fill="none" stroke="black" stroke-dasharray="1,5" d="M68.83,-215.7C68.83,-208.24 68.83,-199.32 68.83,-190.97"/>
<polygon fill="black" stroke="black" points="72.33,-191.1 68.83,-181.1 65.33,-191.1 72.33,-191.1"/>
</g>
<!-- node14 -->
<g id="node5" class="node">
<title>node14</title>
<polygon fill="none" stroke="black" points="178.85,-144.05 180.84,-144.15 182.82,-144.3 184.76,-144.49 186.67,-144.74 188.53,-145.03 190.35,-145.36 192.1,-145.75 193.79,-146.18 195.41,-146.65 196.95,-147.16 198.41,-147.71 199.78,-148.31 201.05,-148.94 202.24,-149.61 203.32,-150.31 204.3,-151.04 205.18,-151.8 205.95,-152.59 206.62,-153.41 207.17,-154.25 207.63,-155.11 207.97,-155.99 208.22,-156.89 208.35,-157.8 208.39,-158.72 208.33,-159.65 208.17,-160.59 207.92,-161.53 207.58,-162.47 207.16,-163.41 206.65,-164.35 206.07,-165.28 205.41,-166.2 204.68,-167.11 203.89,-168.01 203.04,-168.89 202.13,-169.75 201.17,-170.59 200.17,-171.41 199.12,-172.2 198.03,-172.96 196.91,-173.69 195.75,-174.39 194.57,-175.06 193.37,-175.69 192.14,-176.29 190.89,-176.84 189.63,-177.35 188.35,-177.82 187.06,-178.25 185.76,-178.64 184.45,-178.97 183.14,-179.26 181.81,-179.51 180.49,-179.7 179.16,-179.85 177.83,-179.95 176.5,-180 175.17,-180 173.84,-179.95 172.51,-179.85 171.18,-179.7 169.85,-179.51 168.53,-179.26 167.22,-178.97 165.91,-178.64 164.61,-178.25 163.32,-177.82 162.04,-177.35 160.78,-176.84 159.53,-176.29 158.3,-175.69 157.1,-175.06 155.91,-174.39 154.76,-173.69 153.64,-172.96 152.55,-172.2 151.5,-171.41 150.5,-170.59 149.54,-169.75 148.63,-168.89 147.78,-168.01 146.99,-167.11 146.26,-166.2 145.6,-165.28 145.02,-164.35 144.51,-163.41 144.09,-162.47 143.75,-161.53 143.5,-160.59 143.34,-159.65 143.28,-158.72 143.31,-157.8 143.45,-156.89 143.69,-155.99 144.04,-155.11 144.49,-154.25 145.05,-153.41 145.72,-152.59 146.49,-151.8 147.37,-151.04 148.35,-150.31 149.43,-149.61 150.61,-148.94 151.89,-148.31 153.26,-147.71 154.72,-147.16 156.26,-146.65 157.88,-146.18 159.57,-145.75 161.32,-145.36 163.13,-145.03 165,-144.74 166.91,-144.49 168.85,-144.3 170.83,-144.15 172.82,-144.05 174.83,-144 176.84,-144 178.85,-144.05"/>
<text text-anchor="middle" x="175.83" y="-158.9" font-family="Times New Roman,serif" font-size="12.00">testbed</text>
</g>
<!-- node14&#45;&gt;node5 -->
<g id="edge4" class="edge">
<title>node14&#45;&gt;node5</title>
<path fill="none" stroke="black" stroke-dasharray="1,5" d="M163.31,-144.76C156.63,-136.11 148.27,-125.27 140.81,-115.6"/>
<polygon fill="black" stroke="black" points="143.17,-113.93 134.29,-108.15 137.63,-118.2 143.17,-113.93"/>
</g>
</g>
</svg>
